<svg width="121" height="35" viewBox="0 0 121 35" fill="none" xmlns="http://www.w3.org/2000/svg">
<path d="M120.197 30.8907C120.197 32.7515 118.658 34.2588 116.755 34.2588H4.11776C2.21548 34.2588 0.671387 32.7515 0.671387 30.8907V4.03141C0.671387 2.17149 2.21548 0.658936 4.11776 0.658936H116.754C118.658 0.658936 120.196 2.17149 120.196 4.03141L120.197 30.8907Z" fill="black"/>
<path d="M116.392 0.69946C118.464 0.69946 120.151 2.34385 120.151 4.3647V30.5528C120.151 32.5736 118.464 34.218 116.392 34.218H4.4766C2.40393 34.218 0.717375 32.5736 0.717375 30.5528V4.3647C0.717375 2.34385 2.40393 0.69946 4.4766 0.69946H116.392ZM116.392 2.06094e-05H4.4766C2.01559 2.06094e-05 0 1.96522 0 4.3647V30.5528C0 32.9523 2.01559 34.9175 4.4766 34.9175H116.392C118.853 34.9175 120.868 32.9523 120.868 30.5528V4.3647C120.868 1.96522 118.853 2.06094e-05 116.392 2.06094e-05Z" fill="#A6A6A6"/>
<path d="M26.9742 17.2701C26.9483 14.4567 29.337 13.0879 29.4462 13.0242C28.0934 11.1011 25.9965 10.8383 25.2597 10.8174C23.4986 10.6367 21.7903 11.8448 20.8932 11.8448C19.9782 11.8448 18.5967 10.8348 17.1078 10.8645C15.1918 10.8933 13.3994 11.9749 12.4163 13.6544C10.3875 17.079 11.9006 22.1114 13.8444 24.8795C14.8167 26.2352 15.9528 27.7489 17.44 27.6956C18.8949 27.6371 19.4383 26.7912 21.194 26.7912C22.9336 26.7912 23.444 27.6956 24.9607 27.6616C26.5221 27.6371 27.5051 26.2998 28.4434 24.9319C29.5671 23.3781 30.0183 21.8478 30.0362 21.7692C29.9995 21.757 27.0038 20.6423 26.9742 17.2701Z" fill="white"/>
<path d="M24.1092 8.99644C24.8917 8.04232 25.4271 6.74426 25.2785 5.427C24.1459 5.47589 22.7295 6.19082 21.9139 7.12399C21.1923 7.9463 20.5476 9.29411 20.7142 10.5616C21.9864 10.6541 23.2927 9.93572 24.1092 8.99644Z" fill="white"/>
<path d="M48.0294 27.5011H45.9961L44.8823 24.0888H41.011L39.95 27.5011H37.9705L41.806 15.884H44.175L48.0294 27.5011ZM44.5466 22.6571L43.5393 19.6237C43.4328 19.3138 43.2331 18.584 42.9386 17.4352H42.9028C42.7855 17.9293 42.5966 18.6591 42.3369 19.6237L41.3476 22.6571H44.5466Z" fill="white"/>
<path d="M57.893 23.2097C57.893 24.6343 57.4982 25.7604 56.7085 26.5871C56.0012 27.323 55.1229 27.6905 54.0745 27.6905C52.9428 27.6905 52.1299 27.2942 51.6347 26.5015H51.5989V30.9142H49.6901V21.882C49.6901 20.9863 49.6659 20.0671 49.6194 19.1244H51.2981L51.4047 20.4521H51.4405C52.077 19.4517 53.0431 18.9524 54.3395 18.9524C55.353 18.9524 56.1991 19.3426 56.8759 20.1239C57.5546 20.906 57.893 21.9343 57.893 23.2097ZM55.9484 23.2778C55.9484 22.4625 55.7604 21.7903 55.3826 21.2613C54.9698 20.7096 54.4156 20.4338 53.7208 20.4338C53.2499 20.4338 52.8219 20.5874 52.4396 20.8903C52.0564 21.1958 51.8058 21.5948 51.6885 22.0889C51.6294 22.3193 51.5998 22.5079 51.5998 22.6563V24.053C51.5998 24.6623 51.7914 25.1764 52.1746 25.5963C52.5578 26.0162 53.0556 26.2257 53.668 26.2257C54.387 26.2257 54.9465 25.9551 55.3467 25.4156C55.7478 24.8753 55.9484 24.163 55.9484 23.2778Z" fill="white"/>
<path d="M67.775 23.2097C67.775 24.6343 67.3801 25.7604 66.5895 26.5871C65.8831 27.323 65.0048 27.6905 63.9564 27.6905C62.8247 27.6905 62.0118 27.2942 61.5176 26.5015H61.4817V30.9142H59.5729V21.882C59.5729 20.9863 59.5488 20.0671 59.5022 19.1244H61.1809L61.2875 20.4521H61.3233C61.959 19.4517 62.925 18.9524 64.2223 18.9524C65.2349 18.9524 66.081 19.3426 66.7597 20.1239C67.4356 20.906 67.775 21.9343 67.775 23.2097ZM65.8303 23.2778C65.8303 22.4625 65.6414 21.7903 65.2636 21.2613C64.8508 20.7096 64.2984 20.4338 63.6028 20.4338C63.1309 20.4338 62.7039 20.5874 62.3207 20.8903C61.9375 21.1958 61.6877 21.5948 61.5704 22.0889C61.5122 22.3193 61.4817 22.5079 61.4817 22.6563V24.053C61.4817 24.6623 61.6733 25.1764 62.0548 25.5963C62.4379 26.0153 62.9358 26.2257 63.5499 26.2257C64.2689 26.2257 64.8285 25.9551 65.2287 25.4156C65.6298 24.8753 65.8303 24.163 65.8303 23.2778Z" fill="white"/>
<path d="M78.8229 24.2433C78.8229 25.2315 78.4711 26.0355 77.7646 26.6561C76.9884 27.3344 75.9078 27.6731 74.5191 27.6731C73.237 27.6731 72.2092 27.4322 71.4312 26.9494L71.8734 25.3982C72.7115 25.8923 73.631 26.1402 74.6328 26.1402C75.3518 26.1402 75.9113 25.9813 76.3133 25.6653C76.7135 25.3493 76.9132 24.9251 76.9132 24.3961C76.9132 23.9247 76.7485 23.5275 76.4181 23.2054C76.0895 22.8833 75.5407 22.5839 74.7743 22.3072C72.6882 21.5486 71.646 20.4373 71.646 18.976C71.646 18.021 72.0113 17.238 72.7428 16.6287C73.4716 16.0185 74.4439 15.7139 75.6597 15.7139C76.744 15.7139 77.6447 15.8981 78.3636 16.2656L77.8864 17.7827C77.2149 17.4266 76.4557 17.2485 75.606 17.2485C74.9345 17.2485 74.4099 17.41 74.0339 17.7312C73.716 18.0184 73.5566 18.3685 73.5566 18.7831C73.5566 19.2423 73.7384 19.622 74.1037 19.9205C74.4215 20.1964 74.999 20.4949 75.837 20.8171C76.8622 21.2195 77.6151 21.69 78.0995 22.2295C78.5821 22.7672 78.8229 23.4402 78.8229 24.2433Z" fill="white"/>
<path d="M85.1341 20.521H83.0301V24.588C83.0301 25.6224 83.4008 26.1392 84.1439 26.1392C84.485 26.1392 84.7679 26.1104 84.9917 26.0528L85.0446 27.4661C84.6685 27.6031 84.1734 27.6721 83.5601 27.6721C82.8063 27.6721 82.2172 27.4478 81.7919 26.9999C81.3684 26.5512 81.1553 25.7988 81.1553 24.7416V20.5193H79.9019V19.1226H81.1553V17.5888L83.0301 17.0371V19.1226H85.1341V20.521Z" fill="white"/>
<path d="M94.627 23.2436C94.627 24.5312 94.2492 25.5883 93.4953 26.415C92.7048 27.2661 91.6555 27.6903 90.3474 27.6903C89.0868 27.6903 88.0831 27.2827 87.3346 26.4674C86.5862 25.652 86.2119 24.6228 86.2119 23.3824C86.2119 22.0843 86.5969 21.0211 87.3696 20.1944C88.1404 19.3669 89.1808 18.9531 90.4889 18.9531C91.7495 18.9531 92.7639 19.3608 93.5294 20.177C94.2617 20.9687 94.627 21.9909 94.627 23.2436ZM92.6466 23.3038C92.6466 22.5313 92.4774 21.8687 92.1344 21.3162C91.7342 20.6475 91.1621 20.314 90.4208 20.314C89.6535 20.314 89.0707 20.6484 88.6705 21.3162C88.3276 21.8696 88.1583 22.5426 88.1583 23.3388C88.1583 24.1113 88.3276 24.7739 88.6705 25.3256C89.0832 25.9942 89.6598 26.3277 90.4038 26.3277C91.1326 26.3277 91.7047 25.9872 92.1174 25.3081C92.4693 24.7451 92.6466 24.0755 92.6466 23.3038Z" fill="white"/>
<path d="M100.832 20.7611C100.643 20.7271 100.441 20.7096 100.23 20.7096C99.5585 20.7096 99.0393 20.9567 98.674 21.4516C98.3561 21.8881 98.1968 22.4398 98.1968 23.1058V27.5011H96.2888L96.3067 21.7624C96.3067 20.7969 96.2826 19.9179 96.2351 19.1252H97.8977L97.9676 20.7279H98.0204C98.2218 20.1771 98.5397 19.7337 98.9748 19.4011C99.4001 19.1017 99.8594 18.9524 100.354 18.9524C100.531 18.9524 100.69 18.9646 100.832 18.9864V20.7611Z" fill="white"/>
<path d="M109.369 22.9162C109.369 23.2497 109.346 23.5308 109.299 23.7604H103.572C103.595 24.5879 103.871 25.2208 104.403 25.6573C104.886 26.0475 105.51 26.243 106.276 26.243C107.124 26.243 107.898 26.1112 108.593 25.8467L108.892 27.1386C108.079 27.4843 107.12 27.6563 106.012 27.6563C104.68 27.6563 103.634 27.2739 102.873 26.5101C102.114 25.7463 101.733 24.7206 101.733 23.4339C101.733 22.1708 102.087 21.1189 102.795 20.28C103.537 19.3843 104.538 18.9365 105.799 18.9365C107.037 18.9365 107.975 19.3843 108.611 20.28C109.115 20.9914 109.369 21.8713 109.369 22.9162ZM107.548 22.4335C107.561 21.8818 107.437 21.4052 107.178 21.0028C106.847 20.4851 106.34 20.2267 105.657 20.2267C105.033 20.2267 104.525 20.479 104.137 20.9853C103.819 21.3877 103.631 21.8705 103.572 22.4326H107.548V22.4335Z" fill="white"/>
<path d="M43.9155 8.73717C43.9155 9.76462 43.5994 10.538 42.9682 11.0574C42.3836 11.5367 41.5527 11.7767 40.4765 11.7767C39.9429 11.7767 39.4863 11.754 39.104 11.7086V6.09479C39.6027 6.01623 40.1399 5.97607 40.7201 5.97607C41.7452 5.97607 42.5179 6.19344 43.0389 6.62816C43.6227 7.11962 43.9155 7.82234 43.9155 8.73717ZM42.9261 8.76249C42.9261 8.09644 42.7453 7.58577 42.3836 7.22961C42.0219 6.87433 41.4936 6.69625 40.798 6.69625C40.5025 6.69625 40.2509 6.71545 40.0423 6.75561V11.0234C40.1578 11.0409 40.3691 11.0487 40.6762 11.0487C41.3942 11.0487 41.9484 10.854 42.3388 10.4647C42.7292 10.0754 42.9261 9.50798 42.9261 8.76249Z" fill="white"/>
<path d="M49.161 9.63437C49.161 10.2672 48.9757 10.7858 48.605 11.1926C48.2165 11.6107 47.7017 11.8193 47.0588 11.8193C46.4393 11.8193 45.9459 11.6194 45.578 11.2179C45.2109 10.8172 45.0273 10.3118 45.0273 9.70246C45.0273 9.06521 45.2163 8.54232 45.5959 8.13641C45.9755 7.73049 46.4858 7.5271 47.1287 7.5271C47.7482 7.5271 48.246 7.727 48.6229 8.12768C48.9811 8.51701 49.161 9.01982 49.161 9.63437ZM48.1878 9.66405C48.1878 9.28432 48.1037 8.95871 47.9362 8.68723C47.7393 8.35901 47.459 8.1949 47.0946 8.1949C46.7177 8.1949 46.4312 8.35901 46.2342 8.68723C46.0659 8.95871 45.9827 9.28956 45.9827 9.68063C45.9827 10.0604 46.0668 10.386 46.2342 10.6574C46.4375 10.9857 46.7204 11.1498 47.0857 11.1498C47.4438 11.1498 47.7249 10.9831 47.9273 10.6487C48.101 10.372 48.1878 10.0438 48.1878 9.66405Z" fill="white"/>
<path d="M56.1949 7.61108L54.8743 11.7261H54.0148L53.4677 9.93921C53.3289 9.49314 53.2161 9.04968 53.1284 8.60972H53.1114C53.0299 9.0619 52.9171 9.50448 52.7721 9.93921L52.191 11.7261H51.3216L50.0798 7.61108H51.0441L51.5213 9.56734C51.6368 10.03 51.7317 10.4708 51.8078 10.8881H51.8248C51.8946 10.5442 52.0101 10.1059 52.1731 9.57606L52.7721 7.61196H53.5367L54.1106 9.53416C54.2493 10.0029 54.3621 10.4542 54.449 10.889H54.475C54.5385 10.4656 54.6343 10.0143 54.7615 9.53416L55.2736 7.61196H56.1949V7.61108Z" fill="white"/>
<path d="M61.0591 11.7261H60.1208V9.36917C60.1208 8.64289 59.8379 8.27975 59.2702 8.27975C58.9918 8.27975 58.7671 8.37926 58.5925 8.57917C58.4197 8.77907 58.3319 9.01476 58.3319 9.2845V11.7252H57.3936V8.78692C57.3936 8.42553 57.382 8.03358 57.3596 7.60933H58.1842L58.2281 8.25269H58.254C58.3633 8.05279 58.5262 7.8878 58.7402 7.75599C58.9945 7.60235 59.2792 7.52466 59.5907 7.52466C59.9847 7.52466 60.3124 7.64862 60.5729 7.8974C60.897 8.20206 61.0591 8.65686 61.0591 9.26093V11.7261Z" fill="white"/>
<path d="M63.6464 11.7261H62.709V5.7229H63.6464V11.7261Z" fill="white"/>
<path d="M69.1706 9.63437C69.1706 10.2672 68.9852 10.7858 68.6146 11.1926C68.226 11.6107 67.7103 11.8193 67.0683 11.8193C66.4479 11.8193 65.9546 11.6194 65.5875 11.2179C65.2204 10.8172 65.0369 10.3118 65.0369 9.70246C65.0369 9.06521 65.2258 8.54232 65.6054 8.13641C65.985 7.73049 66.4953 7.5271 67.1373 7.5271C67.7577 7.5271 68.2546 7.727 68.6325 8.12768C68.9906 8.51701 69.1706 9.01982 69.1706 9.63437ZM68.1964 9.66405C68.1964 9.28432 68.1123 8.95871 67.9449 8.68723C67.7488 8.35901 67.4677 8.1949 67.1042 8.1949C66.7263 8.1949 66.4398 8.35901 66.2438 8.68723C66.0754 8.95871 65.9922 9.28956 65.9922 9.68063C65.9922 10.0604 66.0763 10.386 66.2438 10.6574C66.447 10.9857 66.7299 11.1498 67.0952 11.1498C67.4533 11.1498 67.7336 10.9831 67.9359 10.6487C68.1105 10.372 68.1964 10.0438 68.1964 9.66405Z" fill="white"/>
<path d="M73.7117 11.7259H72.8692L72.7994 11.2519H72.7734C72.4851 11.6299 72.0742 11.8193 71.5406 11.8193C71.1421 11.8193 70.8198 11.6945 70.5772 11.4466C70.357 11.2214 70.2468 10.9412 70.2468 10.6086C70.2468 10.1058 70.4617 9.72253 70.8941 9.45716C71.3257 9.19179 71.9327 9.06172 72.7143 9.06783V8.99101C72.7143 8.44892 72.4224 8.17831 71.8378 8.17831C71.4215 8.17831 71.0544 8.28044 70.7375 8.48297L70.5468 7.88238C70.9389 7.64582 71.4233 7.5271 71.9945 7.5271C73.0975 7.5271 73.6508 8.09451 73.6508 9.22933V10.7447C73.6508 11.1559 73.6714 11.4832 73.7117 11.7259ZM72.7376 10.3118V9.67714C71.7026 9.65968 71.1851 9.9364 71.1851 10.5064C71.1851 10.7212 71.2442 10.8818 71.3651 10.9892C71.4859 11.0965 71.6399 11.1498 71.8235 11.1498C72.0294 11.1498 72.2219 11.0861 72.3974 10.9595C72.5738 10.832 72.6821 10.6705 72.7224 10.4724C72.7322 10.4279 72.7376 10.3737 72.7376 10.3118Z" fill="white"/>
<path d="M79.0433 11.7261H78.2107L78.1668 11.0653H78.1409C77.8749 11.5681 77.4219 11.8195 76.7853 11.8195C76.2768 11.8195 75.8533 11.6248 75.5176 11.2355C75.1818 10.8462 75.0144 10.3407 75.0144 9.72008C75.0144 9.05403 75.1962 8.51455 75.5614 8.10252C75.9151 7.71843 76.3484 7.52639 76.8641 7.52639C77.4309 7.52639 77.8275 7.71232 78.0531 8.08507H78.071V5.7229H79.0102V10.6175C79.0102 11.0181 79.021 11.3874 79.0433 11.7261ZM78.071 9.99069V9.30456C78.071 9.18584 78.0621 9.08982 78.0451 9.01649C77.9922 8.79651 77.8785 8.61145 77.7057 8.46218C77.5311 8.3129 77.3207 8.23783 77.0781 8.23783C76.728 8.23783 76.4541 8.37314 76.2526 8.64462C76.053 8.9161 75.9518 9.26266 75.9518 9.68603C75.9518 10.0928 76.0476 10.4228 76.2401 10.6768C76.4433 10.9474 76.7173 11.0827 77.0602 11.0827C77.3682 11.0827 77.6144 10.9701 77.8015 10.744C77.9824 10.5354 78.071 10.284 78.071 9.99069Z" fill="white"/>
<path d="M87.068 9.63437C87.068 10.2672 86.8827 10.7858 86.512 11.1926C86.1235 11.6107 85.6095 11.8193 84.9658 11.8193C84.3471 11.8193 83.8538 11.6194 83.485 11.2179C83.1179 10.8172 82.9343 10.3118 82.9343 9.70246C82.9343 9.06521 83.1232 8.54232 83.5029 8.13641C83.8825 7.73049 84.3928 7.5271 85.0365 7.5271C85.6552 7.5271 86.1539 7.727 86.5299 8.12768C86.8881 8.51701 87.068 9.01982 87.068 9.63437ZM86.0957 9.66405C86.0957 9.28432 86.0115 8.95871 85.8441 8.68723C85.6462 8.35901 85.3669 8.1949 85.0016 8.1949C84.6256 8.1949 84.3391 8.35901 84.1412 8.68723C83.9729 8.95871 83.8896 9.28956 83.8896 9.68063C83.8896 10.0604 83.9738 10.386 84.1412 10.6574C84.3445 10.9857 84.6274 11.1498 84.9927 11.1498C85.3508 11.1498 85.6328 10.9831 85.8352 10.6487C86.008 10.372 86.0957 10.0438 86.0957 9.66405Z" fill="white"/>
<path d="M92.1131 11.7261H91.1757V9.36917C91.1757 8.64289 90.8928 8.27975 90.3243 8.27975C90.0458 8.27975 89.8211 8.37926 89.6474 8.57917C89.4737 8.77907 89.3869 9.01476 89.3869 9.2845V11.7252H88.4477V8.78692C88.4477 8.42553 88.4369 8.03358 88.4146 7.60933H89.2382L89.2821 8.25269H89.3081C89.4182 8.05279 89.5812 7.8878 89.7942 7.75599C90.0494 7.60235 90.3332 7.52466 90.6457 7.52466C91.0387 7.52466 91.3664 7.64862 91.6269 7.8974C91.9519 8.20206 92.1131 8.65686 92.1131 9.26093V11.7261Z" fill="white"/>
<path d="M98.4279 8.29626H97.3947V10.2953C97.3947 10.8033 97.5782 11.0574 97.9417 11.0574C98.11 11.0574 98.2497 11.0434 98.3598 11.0146L98.384 11.7086C98.1987 11.7767 97.9551 11.8107 97.6552 11.8107C97.2846 11.8107 96.9963 11.7007 96.7877 11.4807C96.5781 11.2608 96.4743 10.8906 96.4743 10.3712V8.29626H95.8574V7.61101H96.4743V6.85679L97.3938 6.58618V7.61014H98.427V8.29626H98.4279Z" fill="white"/>
<path d="M103.395 11.7261H102.456V9.38662C102.456 8.64898 102.173 8.27973 101.606 8.27973C101.171 8.27973 100.874 8.4936 100.711 8.92134C100.683 9.01125 100.667 9.12124 100.667 9.25044V11.7252H99.7297V5.7229H100.667V8.20291H100.685C100.981 7.75161 101.404 7.52639 101.953 7.52639C102.341 7.52639 102.663 7.65034 102.918 7.89913C103.236 8.20902 103.395 8.66993 103.395 9.27924V11.7261Z" fill="white"/>
<path d="M108.519 9.47379C108.519 9.6379 108.506 9.77583 108.484 9.88844H105.67C105.683 10.2952 105.817 10.6051 106.077 10.8199C106.316 11.0119 106.623 11.1079 106.999 11.1079C107.415 11.1079 107.795 11.0433 108.137 10.9133L108.283 11.5488C107.883 11.7181 107.412 11.8028 106.867 11.8028C106.213 11.8028 105.699 11.6151 105.326 11.2397C104.952 10.8644 104.767 10.3607 104.767 9.72869C104.767 9.10803 104.939 8.59125 105.288 8.17923C105.651 7.73927 106.143 7.51929 106.763 7.51929C107.37 7.51929 107.831 7.73927 108.143 8.17923C108.394 8.5284 108.519 8.9605 108.519 9.47379ZM107.624 9.23723C107.631 8.96574 107.569 8.7318 107.442 8.53451C107.279 8.28049 107.031 8.15304 106.695 8.15304C106.389 8.15304 106.139 8.277 105.948 8.52578C105.793 8.72394 105.7 8.9605 105.67 9.23723H107.624Z" fill="white"/>
</svg>
