<svg width="121" height="35" viewBox="0 0 121 35" fill="none" xmlns="http://www.w3.org/2000/svg">
<path d="M116.529 34.9175H4.7683C2.31067 34.9175 0.297852 32.9523 0.297852 30.5528V4.3647C0.297852 1.96522 2.31067 2.06094e-05 4.7683 2.06094e-05H116.529C118.987 2.06094e-05 121 1.96522 121 4.3647V30.5528C121 32.9523 118.987 34.9175 116.529 34.9175Z" fill="black"/>
<path d="M116.529 0.69946C118.599 0.69946 120.283 2.34385 120.283 4.3647V30.5528C120.283 32.5736 118.599 34.218 116.529 34.218H4.7683C2.69848 34.218 1.01424 32.5736 1.01424 30.5528V4.3647C1.01424 2.34385 2.69848 0.69946 4.7683 0.69946H116.529ZM116.529 2.06094e-05H4.7683C2.31067 2.06094e-05 0.297852 1.96522 0.297852 4.3647V30.5528C0.297852 32.9523 2.31067 34.9175 4.7683 34.9175H116.529C118.987 34.9175 121 32.9523 121 30.5528V4.3647C121 1.96522 118.987 2.06094e-05 116.529 2.06094e-05Z" fill="#A6A6A6"/>
<path d="M42.6932 8.94211C42.6932 9.67101 42.4696 10.2548 42.0293 10.6902C41.523 11.2063 40.8636 11.466 40.0556 11.466C39.2833 11.466 38.6239 11.2019 38.083 10.6814C37.541 10.1533 37.2705 9.50515 37.2705 8.72933C37.2705 7.95351 37.541 7.30535 38.083 6.78159C38.6239 6.25674 39.2833 5.99268 40.0556 5.99268C40.4401 5.99268 40.8066 6.07015 41.1564 6.21418C41.5051 6.35931 41.789 6.55572 41.9946 6.79796L41.5275 7.25843C41.1687 6.84488 40.6803 6.64083 40.0556 6.64083C39.4923 6.64083 39.0039 6.83288 38.5893 7.22024C38.1791 7.6087 37.9735 8.11173 37.9735 8.72933C37.9735 9.34693 38.1791 9.85433 38.5893 10.2428C39.0039 10.6258 39.4923 10.8222 40.0556 10.8222C40.6535 10.8222 41.1564 10.6258 41.5532 10.2384C41.8147 9.98199 41.9634 9.62846 42.0025 9.17671H40.0556V8.54601H42.6529C42.6842 8.68241 42.6932 8.81444 42.6932 8.94211Z" fill="white" stroke="white" stroke-width="0.16" stroke-miterlimit="10"/>
<path d="M46.814 6.75549H44.3743V8.41407H46.5737V9.04477H44.3743V10.7033H46.814V11.346H43.6836V6.11279H46.814V6.75549Z" fill="white" stroke="white" stroke-width="0.16" stroke-miterlimit="10"/>
<path d="M49.7218 11.346H49.0311V6.75549H47.5347V6.11279H51.2194V6.75549H49.7218V11.346Z" fill="white" stroke="white" stroke-width="0.16" stroke-miterlimit="10"/>
<path d="M53.8862 11.346V6.11279H54.5758V11.346H53.8862Z" fill="white" stroke="white" stroke-width="0.16" stroke-miterlimit="10"/>
<path d="M57.6325 11.346H56.9474V6.75549H55.4453V6.11279H59.1345V6.75549H57.6325V11.346Z" fill="white" stroke="white" stroke-width="0.16" stroke-miterlimit="10"/>
<path d="M66.1106 10.6727C65.582 11.2019 64.9271 11.466 64.1459 11.466C63.3602 11.466 62.7053 11.2019 62.1766 10.6727C61.6491 10.1446 61.3865 9.49642 61.3865 8.72933C61.3865 7.96224 61.6491 7.31408 62.1766 6.78596C62.7053 6.25674 63.3602 5.99268 64.1459 5.99268C64.9226 5.99268 65.5775 6.25674 66.1062 6.79032C66.6381 7.32281 66.9008 7.9666 66.9008 8.72933C66.9008 9.49642 66.6381 10.1446 66.1106 10.6727ZM62.6874 10.2341C63.0852 10.6258 63.5692 10.8222 64.1459 10.8222C64.7181 10.8222 65.2065 10.6258 65.5999 10.2341C65.9966 9.84233 66.1978 9.3393 66.1978 8.72933C66.1978 8.11937 65.9966 7.61634 65.5999 7.22461C65.2065 6.83288 64.7181 6.63647 64.1459 6.63647C63.5692 6.63647 63.0852 6.83288 62.6874 7.22461C62.2906 7.61634 62.0895 8.11937 62.0895 8.72933C62.0895 9.3393 62.2906 9.84233 62.6874 10.2341Z" fill="white" stroke="white" stroke-width="0.16" stroke-miterlimit="10"/>
<path d="M67.8699 11.346V6.11279H68.7081L71.3144 10.1829H71.3445L71.3144 9.1768V6.11279H72.0039V11.346H71.2842L68.555 7.07521H68.5248L68.555 8.08563V11.346H67.8699Z" fill="white" stroke="white" stroke-width="0.16" stroke-miterlimit="10"/>
<path d="M61.2165 18.9886C59.1165 18.9886 57.401 20.549 57.401 22.7019C57.401 24.8373 59.1165 26.414 61.2165 26.414C63.321 26.414 65.0365 24.8373 65.0365 22.7019C65.0365 20.549 63.321 18.9886 61.2165 18.9886ZM61.2165 24.9519C60.0643 24.9519 59.073 24.0233 59.073 22.7019C59.073 21.363 60.0643 20.4508 61.2165 20.4508C62.3688 20.4508 63.3646 21.363 63.3646 22.7019C63.3646 24.0233 62.3688 24.9519 61.2165 24.9519ZM52.8915 18.9886C50.787 18.9886 49.0759 20.549 49.0759 22.7019C49.0759 24.8373 50.787 26.414 52.8915 26.414C54.9948 26.414 56.707 24.8373 56.707 22.7019C56.707 20.549 54.9948 18.9886 52.8915 18.9886ZM52.8915 24.9519C51.7381 24.9519 50.7434 24.0233 50.7434 22.7019C50.7434 21.363 51.7381 20.4508 52.8915 20.4508C54.0437 20.4508 55.035 21.363 55.035 22.7019C55.035 24.0233 54.0437 24.9519 52.8915 24.9519ZM42.985 20.1267V21.7045H46.8441C46.7312 22.5862 46.4294 23.2344 45.9667 23.6861C45.4035 24.2317 44.5261 24.8373 42.985 24.8373C40.61 24.8373 38.7503 22.9659 38.7503 20.6472C38.7503 18.3285 40.61 16.4571 42.985 16.4571C44.2691 16.4571 45.2034 16.947 45.893 17.5821L47.0318 16.4702C46.0673 15.5711 44.7843 14.8804 42.985 14.8804C39.7282 14.8804 36.9912 17.4675 36.9912 20.6472C36.9912 23.8269 39.7282 26.414 42.985 26.414C44.7452 26.414 46.0673 25.851 47.1067 24.7947C48.1718 23.7549 48.5037 22.2927 48.5037 21.112C48.5037 20.7454 48.4724 20.4082 48.4165 20.1267H42.985ZM83.4939 21.3499C83.1798 20.5195 82.2109 18.9886 80.2372 18.9886C78.2813 18.9886 76.653 20.4933 76.653 22.7019C76.653 24.7816 78.2646 26.414 80.4249 26.414C82.1717 26.414 83.1798 25.3741 83.5945 24.7685L82.298 23.9251C81.8655 24.5427 81.2765 24.9519 80.4249 24.9519C79.5789 24.9519 78.972 24.5732 78.5831 23.8269L83.6693 21.7722L83.4939 21.3499ZM78.3082 22.5862C78.2646 21.1546 79.447 20.4213 80.2942 20.4213C80.958 20.4213 81.5213 20.7454 81.709 21.2092L78.3082 22.5862ZM74.1741 26.1882H75.8461V15.2765H74.1741V26.1882ZM71.436 19.8157H71.3801C71.0046 19.3814 70.2882 18.9886 69.3807 18.9886C67.4763 18.9886 65.735 20.621 65.735 22.7139C65.735 24.7947 67.4763 26.414 69.3807 26.414C70.2882 26.414 71.0046 26.0179 71.3801 25.5706H71.436V26.1031C71.436 27.5227 70.6592 28.2854 69.4064 28.2854C68.3849 28.2854 67.7512 27.5652 67.4897 26.9596L66.0357 27.5521C66.4548 28.5364 67.5646 29.7476 69.4064 29.7476C71.3667 29.7476 73.0207 28.6215 73.0207 25.8815V19.2145H71.436V19.8157ZM69.5237 24.9519C68.3715 24.9519 67.407 24.0102 67.407 22.7139C67.407 21.4056 68.3715 20.4508 69.5237 20.4508C70.6592 20.4508 71.5544 21.4056 71.5544 22.7139C71.5544 24.0102 70.6592 24.9519 69.5237 24.9519ZM91.3216 15.2765H87.3228V26.1882H88.9903V22.0537H91.3216C93.1735 22.0537 94.9896 20.7454 94.9896 18.6645C94.9896 16.5848 93.169 15.2765 91.3216 15.2765ZM91.3652 20.5359H88.9903V16.7943H91.3652C92.6102 16.7943 93.321 17.8036 93.321 18.6645C93.321 19.5091 92.6102 20.5359 91.3652 20.5359ZM101.673 18.9679C100.468 18.9679 99.2153 19.4873 98.7001 20.6385L100.18 21.2441C100.498 20.6385 101.084 20.4421 101.703 20.4421C102.568 20.4421 103.445 20.9495 103.459 21.8453V21.9599C103.157 21.7897 102.511 21.5376 101.717 21.5376C100.123 21.5376 98.4989 22.3942 98.4989 23.9927C98.4989 25.4549 99.8043 26.3966 101.272 26.3966C102.394 26.3966 103.013 25.9023 103.402 25.3272H103.459V26.1707H105.069V21.985C105.069 20.0503 103.59 18.9679 101.673 18.9679ZM101.472 24.9475C100.926 24.9475 100.166 24.6834 100.166 24.0233C100.166 23.1787 101.114 22.8546 101.934 22.8546C102.669 22.8546 103.013 23.0129 103.459 23.2213C103.328 24.2317 102.437 24.9475 101.472 24.9475ZM110.937 19.2069L109.02 23.9371H108.963L106.982 19.2069H105.183L108.161 25.8172L106.462 29.4955H108.204L112.792 19.2069H110.937ZM95.9061 26.1882H97.578V15.2765H95.9061V26.1882Z" fill="white"/>
<path d="M9.62752 6.58085C9.36488 6.84928 9.21289 7.2672 9.21289 7.80842V27.1134C9.21289 27.6546 9.36488 28.0726 9.62752 28.341L9.69235 28.3999L20.7723 17.5864V17.3311L9.69235 6.51756L9.62752 6.58085Z" fill="url(#paint0_linear_2101_1854)"/>
<path d="M24.4617 21.1929L20.7725 17.5866V17.3312L24.4662 13.7249L24.5489 13.7718L28.9232 16.2019C30.1716 16.8915 30.1716 18.0263 28.9232 18.7203L24.5489 21.1459L24.4617 21.1929Z" fill="url(#paint1_linear_2101_1854)"/>
<path d="M24.5489 21.1459L20.7725 17.4588L9.62769 28.341C10.0423 28.7666 10.7185 28.8179 11.4874 28.3923L24.5489 21.1459Z" fill="url(#paint2_linear_2101_1854)"/>
<path d="M24.5489 13.7717L11.4874 6.52521C10.7185 6.10402 10.0423 6.15531 9.62769 6.58086L20.7725 17.4587L24.5489 13.7717Z" fill="url(#paint3_linear_2101_1854)"/>
<defs>
<linearGradient id="paint0_linear_2101_1854" x1="19.7886" y1="27.3144" x2="5.1428" y2="12.3138" gradientUnits="userSpaceOnUse">
<stop stop-color="#00A0FF"/>
<stop offset="0.0066" stop-color="#00A1FF"/>
<stop offset="0.2601" stop-color="#00BEFF"/>
<stop offset="0.5122" stop-color="#00D2FF"/>
<stop offset="0.7604" stop-color="#00DFFF"/>
<stop offset="1" stop-color="#00E3FF"/>
</linearGradient>
<linearGradient id="paint1_linear_2101_1854" x1="30.5488" y1="17.4577" x2="8.91461" y2="17.4577" gradientUnits="userSpaceOnUse">
<stop stop-color="#FFE000"/>
<stop offset="0.4087" stop-color="#FFBD00"/>
<stop offset="0.7754" stop-color="#FFA500"/>
<stop offset="1" stop-color="#FF9C00"/>
</linearGradient>
<linearGradient id="paint2_linear_2101_1854" x1="22.4954" y1="15.4545" x2="2.63455" y2="-4.88766" gradientUnits="userSpaceOnUse">
<stop stop-color="#FF3A44"/>
<stop offset="1" stop-color="#C31162"/>
</linearGradient>
<linearGradient id="paint3_linear_2101_1854" x1="6.8223" y1="34.7637" x2="15.6911" y2="25.6801" gradientUnits="userSpaceOnUse">
<stop stop-color="#32A071"/>
<stop offset="0.0685" stop-color="#2DA771"/>
<stop offset="0.4762" stop-color="#15CF74"/>
<stop offset="0.8009" stop-color="#06E775"/>
<stop offset="1" stop-color="#00F076"/>
</linearGradient>
</defs>
</svg>
