<svg width="24" height="18" viewBox="0 0 24 18" fill="none" xmlns="http://www.w3.org/2000/svg">
<g clip-path="url(#clip0_2130_321)">
<mask id="mask0_2130_321" style="mask-type:alpha" maskUnits="userSpaceOnUse" x="0" y="0" width="24" height="18">
<path d="M21.7143 0H2.28571C1.02335 0 0 1.02335 0 2.28571V14.8571C0 16.1195 1.02335 17.1429 2.28571 17.1429H21.7143C22.9767 17.1429 24 16.1195 24 14.8571V2.28571C24 1.02335 22.9767 0 21.7143 0Z" fill="white"/>
</mask>
<g mask="url(#mask0_2130_321)">
<path d="M21.7143 0H2.28571C1.02335 0 0 1.02335 0 2.28571V14.8571C0 16.1195 1.02335 17.1429 2.28571 17.1429H21.7143C22.9767 17.1429 24 16.1195 24 14.8571V2.28571C24 1.02335 22.9767 0 21.7143 0Z" fill="#0034A9"/>
<path fill-rule="evenodd" clip-rule="evenodd" d="M0 11.4285H24V17.1428H0V11.4285Z" fill="#D7280F"/>
<path fill-rule="evenodd" clip-rule="evenodd" d="M0 0H24V5.71429H0V0Z" fill="white"/>
<path d="M21.7141 0.571533H2.28557C1.3388 0.571533 0.571289 1.33905 0.571289 2.28582V14.8572C0.571289 15.804 1.3388 16.5715 2.28557 16.5715H21.7141C22.6609 16.5715 23.4284 15.804 23.4284 14.8572V2.28582C23.4284 1.33905 22.6609 0.571533 21.7141 0.571533Z" stroke="black" stroke-opacity="0.1"/>
</g>
</g>
<defs>
<clipPath id="clip0_2130_321">
<rect width="24" height="17.1429" fill="white"/>
</clipPath>
</defs>
</svg>
