<svg width="185" height="184" viewBox="0 0 185 184" fill="none" xmlns="http://www.w3.org/2000/svg">
<path d="M83.6764 43.3005C102.019 37.6597 107.181 40.4511 112.921 59.1158L118.045 75.7798C123.785 94.4445 121.084 99.6539 102.741 105.295L86.364 110.331C68.0212 115.972 62.8595 113.18 57.1198 94.5155L51.9953 77.8515C46.2555 59.1868 48.9568 53.9774 67.2996 48.3366L83.6764 43.3005Z" fill="#D0F4FE"/>
<path d="M103.101 114.05C103.101 123.094 95.7702 130.425 86.7265 130.425C77.6829 130.425 70.3516 123.094 70.3516 114.05C70.3516 105.007 77.6829 97.6755 86.7265 97.6755C95.7702 97.6755 103.101 105.007 103.101 114.05Z" fill="white" stroke="#069DC5" stroke-width="2"/>
<path d="M86.5 67.2694C72.3517 67.2694 59.8813 72.5365 51.6208 80.56C49.3812 82.7353 45.7929 82.691 43.6082 80.4615C41.4259 78.2344 41.4701 74.6694 43.7072 72.4966C54.2162 62.2891 69.5846 56 86.5 56C103.415 56 118.784 62.2891 129.293 72.4966C131.53 74.6694 131.574 78.2344 129.392 80.4615C127.207 82.691 123.619 82.7353 121.379 80.56C113.119 72.5365 100.648 67.2694 86.5 67.2694ZM86.5107 86.9752C78.5439 86.9752 71.1633 90.1207 65.3619 95.4905C63.0703 97.6117 59.4841 97.4813 57.3541 95.2003C55.2265 92.9218 55.3565 89.3589 57.6456 87.24C65.3577 80.1016 75.4372 75.7058 86.5107 75.7058C97.5843 75.7058 107.664 80.1016 115.376 87.24C117.665 89.3589 117.795 92.9218 115.667 95.2003C113.537 97.4813 109.951 97.6117 107.659 95.4905C101.858 90.1207 94.4775 86.9752 86.5107 86.9752Z" fill="white" stroke="#069DC5" stroke-width="2"/>
<path fill-rule="evenodd" clip-rule="evenodd" d="M79.9669 107.249C80.7789 106.441 81.9103 106.263 82.4939 106.852L93.8679 118.325C94.4516 118.913 94.2665 120.046 93.4545 120.854C92.6426 121.662 91.5112 121.84 90.9275 121.251L79.5536 109.778C78.9699 109.189 79.1549 108.057 79.9669 107.249Z" fill="#009FDA"/>
<path fill-rule="evenodd" clip-rule="evenodd" d="M93.4711 107.249C92.6591 106.441 91.5277 106.263 90.9441 106.852L79.5701 118.325C78.9864 118.913 79.1715 120.046 79.9835 120.854C80.7954 121.662 81.9268 121.84 82.5105 121.251L93.8844 109.778C94.4681 109.189 94.283 108.057 93.4711 107.249Z" fill="#009FDA"/>
</svg>
