<svg width="112" height="112" viewBox="0 0 112 112" fill="none" xmlns="http://www.w3.org/2000/svg">
<path d="M85.2116 31H81.7007C81.1469 31 80.6981 31.4488 80.6981 32.0027C80.6981 32.5566 81.1469 33.0054 81.7007 33.0054H85.2116C86.8702 33.0054 88.2197 34.3549 88.2197 36.0134V40.6258H23.7805V36.0134C23.7805 34.3549 25.1299 33.0054 26.7886 33.0054L82.2704 33.0054C82.8243 33.0054 83.2731 32.5566 83.2731 32.0027C83.2731 31.4488 82.8243 31 82.2704 31L26.7886 31C24.0241 31 21.7751 33.249 21.7751 36.0134V52.658C21.7751 53.2118 22.2241 53.6607 22.7778 53.6607C23.3316 53.6607 23.7805 53.2118 23.7805 52.658V42.6311H88.2197V73.3132C88.2197 73.8671 88.6684 74.3159 89.2223 74.3159C89.7762 74.3159 90.225 73.8671 90.225 73.3132V36.0134C90.225 33.249 87.9761 31 85.2116 31Z" fill="#F46036"/>
<path d="M89.2223 71.7081C88.6684 71.7081 88.2197 72.1569 88.2197 72.7108V75.3186C88.2197 76.9772 86.8702 78.3267 85.2116 78.3267H26.7886C25.1299 78.3267 23.7805 76.9772 23.7805 75.3186V51.3701C23.7805 50.8162 23.3316 50.3674 22.7778 50.3674C22.2241 50.3674 21.7751 50.8162 21.7751 51.3701V75.3186C21.7751 78.0831 24.0241 80.332 26.7886 80.332H85.2116C87.9761 80.332 90.225 78.0831 90.225 75.3186V72.7108C90.225 72.1571 89.7762 71.7081 89.2223 71.7081Z" fill="#F46036"/>
<path d="M27 37C27 38.1028 27.8972 39 29 39C30.1028 39 31 38.1028 31 37C31 35.8972 30.1028 35 29 35C27.8972 35 27 35.8972 27 37ZM29.6667 37C29.6667 37.3676 29.3676 37.6667 29 37.6667C28.6324 37.6667 28.3333 37.3676 28.3333 37C28.3333 36.6324 28.6324 36.3333 29 36.3333C29.3676 36.3333 29.6667 36.6324 29.6667 37Z" fill="#F46036"/>
<path d="M29.6667 37C29.6667 37.3676 29.3676 37.6667 29 37.6667C28.6324 37.6667 28.3333 37.3676 28.3333 37C28.3333 36.6324 28.6324 36.3333 29 36.3333C29.3676 36.3333 29.6667 36.6324 29.6667 37Z" fill="#F46036"/>
<path d="M33 37C33 38.1028 33.8972 39 35 39C36.1028 39 37 38.1028 37 37C37 35.8972 36.1028 35 35 35C33.8972 35 33 35.8972 33 37ZM35.6667 37C35.6667 37.3676 35.3676 37.6667 35 37.6667C34.6324 37.6667 34.3333 37.3676 34.3333 37C34.3333 36.6324 34.6324 36.3333 35 36.3333C35.3676 36.3333 35.6667 36.6324 35.6667 37Z" fill="#F46036"/>
<path d="M35.6667 37C35.6667 37.3676 35.3676 37.6667 35 37.6667C34.6324 37.6667 34.3333 37.3676 34.3333 37C34.3333 36.6324 34.6324 36.3333 35 36.3333C35.3676 36.3333 35.6667 36.6324 35.6667 37Z" fill="#F46036"/>
<path d="M39 37C39 38.1028 39.8972 39 41 39C42.1028 39 43 38.1028 43 37C43 35.8972 42.1028 35 41 35C39.8972 35 39 35.8972 39 37ZM41.6667 37C41.6667 37.3676 41.3676 37.6667 41 37.6667C40.6324 37.6667 40.3333 37.3676 40.3333 37C40.3333 36.6324 40.6324 36.3333 41 36.3333C41.3676 36.3333 41.6667 36.6324 41.6667 37Z" fill="#F46036"/>
<path d="M41.6667 37C41.6667 37.3676 41.3676 37.6667 41 37.6667C40.6324 37.6667 40.3333 37.3676 40.3333 37C40.3333 36.6324 40.6324 36.3333 41 36.3333C41.3676 36.3333 41.6667 36.6324 41.6667 37Z" fill="#F46036"/>
<path fill-rule="evenodd" clip-rule="evenodd" d="M29 49.0588C29 48.4741 29.4788 48 30.0694 48H34.9224L36.0447 53.8717H50.5041C52.0363 53.8717 53.2065 55.226 52.9694 56.7247L51.9995 62.8531C51.8092 64.0552 50.7632 64.9412 49.5342 64.9412H38.0512C36.852 64.9412 35.8224 64.0966 35.5994 62.93L33.1503 50.1176H30.0694C29.4788 50.1176 29 49.6436 29 49.0588ZM36.4495 55.9893L37.701 62.5362C37.7328 62.7029 37.8799 62.8235 38.0512 62.8235H49.5342C49.7098 62.8235 49.8592 62.697 49.8864 62.5252L50.8563 56.3969C50.8902 56.1828 50.723 55.9893 50.5041 55.9893H36.4495ZM37.5554 68.4706C37.1616 68.4706 36.8424 68.7866 36.8424 69.1765C36.8424 69.5663 37.1616 69.8824 37.5554 69.8824C37.9491 69.8824 38.2683 69.5663 38.2683 69.1765C38.2683 68.7866 37.9491 68.4706 37.5554 68.4706ZM34.7036 69.1765C34.7036 67.6171 35.9804 66.3529 37.5554 66.3529C39.1304 66.3529 40.4072 67.6171 40.4072 69.1765C40.4072 70.7359 39.1304 72 37.5554 72C35.9804 72 34.7036 70.7359 34.7036 69.1765ZM48.9626 68.4706C48.5688 68.4706 48.2496 68.7866 48.2496 69.1765C48.2496 69.5663 48.5688 69.8824 48.9626 69.8824C49.3563 69.8824 49.6755 69.5663 49.6755 69.1765C49.6755 68.7866 49.3563 68.4706 48.9626 68.4706ZM46.1108 69.1765C46.1108 67.6171 47.3876 66.3529 48.9626 66.3529C50.5376 66.3529 51.8144 67.6171 51.8144 69.1765C51.8144 70.7359 50.5376 72 48.9626 72C47.3876 72 46.1108 70.7359 46.1108 69.1765Z" fill="#F46036"/>
<path d="M37.701 62.5362L36.4495 55.9893H50.5041C50.723 55.9893 50.8902 56.1828 50.8563 56.3969L49.8864 62.5252C49.8592 62.697 49.7098 62.8235 49.5342 62.8235H38.0512C37.8799 62.8235 37.7328 62.7029 37.701 62.5362Z" fill="#F46036"/>
<rect x="59" y="51" width="24" height="3" rx="1.5" fill="#F46036"/>
<rect x="59" y="57" width="24" height="3" rx="1.5" fill="#F46036"/>
<rect x="59" y="63" width="14" height="3" rx="1.5" fill="#F46036"/>
</svg>
