<svg width="112" height="112" viewBox="0 0 112 112" fill="none" xmlns="http://www.w3.org/2000/svg">
<path d="M84 26H28C27.4696 26 26.9609 26.2107 26.5858 26.5858C26.2107 26.9609 26 27.4696 26 28V74C26 74.5304 26.2107 75.0391 26.5858 75.4142C26.9609 75.7893 27.4696 76 28 76H42.66L40.26 84H39C38.7348 84 38.4804 84.1054 38.2929 84.2929C38.1054 84.4804 38 84.7348 38 85C38 85.2652 38.1054 85.5196 38.2929 85.7071C38.4804 85.8946 38.7348 86 39 86H73C73.2652 86 73.5196 85.8946 73.7071 85.7071C73.8946 85.5196 74 85.2652 74 85C74 84.7348 73.8946 84.4804 73.7071 84.2929C73.5196 84.1054 73.2652 84 73 84H71.74L69.34 76H84C84.5304 76 85.0391 75.7893 85.4142 75.4142C85.7893 75.0391 86 74.5304 86 74V28C86 27.4696 85.7893 26.9609 85.4142 26.5858C85.0391 26.2107 84.5304 26 84 26ZM84 28V66H28V28H84ZM69.66 84H42.34L44.74 76H67.26L69.66 84ZM68 74H28V68H84V74H68Z" fill="#F46036"/>
<path d="M35 60H57C57.5304 60 58.0391 59.7893 58.4142 59.4142C58.7893 59.0391 59 58.5304 59 58V36C59 35.4696 58.7893 34.9609 58.4142 34.5858C58.0391 34.2107 57.5304 34 57 34H35C34.4696 34 33.9609 34.2107 33.5858 34.5858C33.2107 34.9609 33 35.4696 33 36V58C33 58.5304 33.2107 59.0391 33.5858 59.4142C33.9609 59.7893 34.4696 60 35 60ZM43 58V50H49V58H43ZM51 58V49C51 48.7348 50.8946 48.4804 50.7071 48.2929C50.5196 48.1054 50.2652 48 50 48H42C41.7348 48 41.4804 48.1054 41.2929 48.2929C41.1054 48.4804 41 48.7348 41 49V58H35V45C35.5126 45.3964 36.0984 45.6878 36.7237 45.8576C37.3491 46.0274 38.0018 46.0723 38.6445 45.9896C39.2872 45.9069 39.9073 45.6984 40.4694 45.3759C41.0314 45.0534 41.5243 44.6232 41.92 44.11L42 44C42.7822 45.0504 43.9453 45.7521 45.2393 45.954C46.5333 46.156 47.8549 45.8421 48.92 45.08C49.3332 44.7774 49.6974 44.4132 50 44C50.7704 45.0566 51.9282 45.7646 53.2197 45.9689C54.5113 46.1732 55.8311 45.8572 56.89 45.09L57 45V58H51ZM57 40V41C57 41.7956 56.6839 42.5587 56.1213 43.1213C55.5587 43.6839 54.7956 44 54 44C53.2044 44 52.4413 43.6839 51.8787 43.1213C51.3161 42.5587 51 41.7956 51 41V36H57V40ZM49 41C49 41.7956 48.6839 42.5587 48.1213 43.1213C47.5587 43.6839 46.7956 44 46 44C45.2044 44 44.4413 43.6839 43.8787 43.1213C43.3161 42.5587 43 41.7956 43 41V36H49V41ZM35 36H41V41C41 41.7956 40.6839 42.5587 40.1213 43.1213C39.5587 43.6839 38.7956 44 38 44C37.2044 44 36.4413 43.6839 35.8787 43.1213C35.3161 42.5587 35 41.7956 35 41V36ZM65 40H78C78.2652 40 78.5196 39.8946 78.7071 39.7071C78.8946 39.5196 79 39.2652 79 39C79 38.7348 78.8946 38.4804 78.7071 38.2929C78.5196 38.1054 78.2652 38 78 38H65C64.7348 38 64.4804 38.1054 64.2929 38.2929C64.1054 38.4804 64 38.7348 64 39C64 39.2652 64.1054 39.5196 64.2929 39.7071C64.4804 39.8946 64.7348 40 65 40ZM65 48H78C78.2652 48 78.5196 47.8946 78.7071 47.7071C78.8946 47.5196 79 47.2652 79 47C79 46.7348 78.8946 46.4804 78.7071 46.2929C78.5196 46.1054 78.2652 46 78 46H65C64.7348 46 64.4804 46.1054 64.2929 46.2929C64.1054 46.4804 64 46.7348 64 47C64 47.2652 64.1054 47.5196 64.2929 47.7071C64.4804 47.8946 64.7348 48 65 48ZM65 56H78C78.2652 56 78.5196 55.8946 78.7071 55.7071C78.8946 55.5196 79 55.2652 79 55C79 54.7348 78.8946 54.4804 78.7071 54.2929C78.5196 54.1054 78.2652 54 78 54H65C64.7348 54 64.4804 54.1054 64.2929 54.2929C64.1054 54.4804 64 54.7348 64 55C64 55.2652 64.1054 55.5196 64.2929 55.7071C64.4804 55.8946 64.7348 56 65 56Z" fill="#F46036"/>
</svg>
