<svg width="306" height="34" viewBox="0 0 306 34" fill="none" xmlns="http://www.w3.org/2000/svg">
<rect x="1" y="1" width="48" height="32" rx="4" fill="white" stroke="#E4E6EA"/>
<path fill-rule="evenodd" clip-rule="evenodd" d="M31.3502 18.67C31.3563 17.1452 30.0988 16.4867 29.1229 15.9756C28.5051 15.6521 28.0002 15.3876 28.0002 15C28.0002 14.67 28.3202 14.32 29.0002 14.23C29.8095 14.1499 30.6253 14.2916 31.3602 14.64L31.7802 12.64C31.0638 12.3713 30.3053 12.2325 29.5402 12.23C27.1802 12.23 25.5402 13.49 25.5402 15.29C25.5402 16.62 26.7302 17.36 27.6302 17.8C28.5302 18.24 28.8802 18.55 28.8702 18.95C28.8702 19.57 28.1302 19.85 27.4402 19.86C26.589 19.8709 25.7492 19.6644 25.0002 19.26L24.5702 21.26C25.4176 21.5908 26.3204 21.7571 27.2302 21.75C29.7402 21.75 31.3902 20.51 31.4002 18.59L31.3502 18.67ZM24.8602 12.39L22.8602 21.64H20.4602L22.4602 12.39H24.8602ZM34.9202 18.39L36.1802 14.92L36.9102 18.39H34.9202ZM39.8102 21.67H37.5902L37.3002 20.29H34.2902L33.8002 21.67H31.2802L34.8702 13.1C35.0357 12.6922 35.4301 12.424 35.8702 12.42H37.8702L39.8102 21.67ZM17.6102 21.61L21.4902 12.36H18.8902L16.4002 18.65L15.4002 13.3C15.3116 12.7563 14.841 12.3577 14.2902 12.36H10.2202L10.1602 12.63C10.9765 12.7897 11.7694 13.0518 12.5202 13.41C12.8399 13.5603 13.0566 13.8682 13.0902 14.22L15.0002 21.61H17.6102Z" fill="#2A2A6C"/>
<rect x="193" y="1" width="48" height="32" rx="4" fill="white" stroke="#E4E6EA"/>
<g clip-path="url(#clip0_2503_239)">
<path d="M207.971 19.6971H204.179V13.6489H207.971V14.458H205.106V16.227H207.817V17.0065H205.106V18.885H207.971V19.6971Z" fill="#292E46"/>
<path d="M210.228 17.3083H212.033L211.143 14.6547H211.118L210.228 17.3083ZM212.27 18.0626H209.992L209.445 19.6971H208.481L210.638 13.6489H211.64L213.797 19.6971H212.815L212.27 18.0626Z" fill="#292E46"/>
<path d="M215.06 18.0123C215.126 18.6114 215.702 19.0063 216.489 19.0063C217.243 19.0063 217.785 18.6128 217.785 18.0715C217.785 17.6026 217.458 17.3216 216.684 17.1278L215.909 16.94C214.812 16.6722 214.303 16.1516 214.303 15.31C214.303 14.2657 215.202 13.5498 216.477 13.5498C217.74 13.5498 218.605 14.2672 218.634 15.31H217.731C217.677 14.7065 217.185 14.3411 216.464 14.3411C215.744 14.3411 215.252 14.7094 215.252 15.2464C215.252 15.6738 215.566 15.9253 216.336 16.1176L216.995 16.2803C218.221 16.5731 218.729 17.0731 218.729 17.9561C218.729 19.0876 217.839 19.7961 216.423 19.7961C215.098 19.7961 214.204 19.1039 214.146 18.0108H215.06V18.0123Z" fill="#292E46"/>
<path d="M221.164 19.6971V17.221L219.061 13.6489H220.096L221.619 16.3187H221.649L223.173 13.6489H224.198L222.091 17.221V19.6971H221.164Z" fill="#292E46"/>
<path d="M225.429 16.906H226.853C227.772 16.906 228.323 16.3912 228.323 15.5319C228.323 14.6725 227.777 14.1607 226.853 14.1607H225.429V16.906ZM226.986 13.6489C228.125 13.6489 228.903 14.4077 228.903 15.5304C228.903 16.653 228.12 17.4163 226.982 17.4163H225.429V19.6971H224.866V13.6489H226.986Z" fill="#292E46"/>
<path d="M230.15 17.3497H232.32L231.247 14.3574H231.222L230.15 17.3497ZM232.489 17.8452H229.98L229.318 19.6971H228.718L230.953 13.6489H231.516L233.747 19.6971H233.151L232.489 17.8452Z" fill="#292E46"/>
<path d="M235.292 19.6971V17.082L233.152 13.6489H233.798L235.566 16.5199H235.586L237.354 13.6489H238L235.859 17.082V19.6971H235.292Z" fill="#292E46"/>
<path d="M196.46 12.1728L197.967 13.0528L199.473 13.9329C199.678 14.0527 199.678 14.3515 199.473 14.4698L197.967 15.3499L196.46 16.2315C196.256 16.3513 196 16.2019 196 15.9638V14.2021V12.442C196 12.2038 196.256 12.0544 196.46 12.1728Z" fill="#A6CE39"/>
<path d="M200.081 14.4714L198.574 15.3515L197.068 16.2316C196.863 16.3514 196.863 16.6502 197.068 16.7685L198.574 17.6486L200.081 18.5287C200.285 18.6485 200.541 18.4991 200.541 18.2595V16.4993V14.7392C200.54 14.501 200.285 14.3516 200.081 14.4714Z" fill="#A6CE39"/>
<path d="M199.472 18.5302L197.965 17.6501L196.46 16.77C196.256 16.6502 196 16.7996 196 17.0378V18.7979V20.5581C196 20.7962 196.256 20.9456 196.46 20.8273L197.967 19.9472L199.473 19.0671C199.676 18.9488 199.676 18.65 199.472 18.5302Z" fill="#A6CE39"/>
</g>
<rect x="65" y="1" width="48" height="32" rx="4" fill="white" stroke="#E4E6EA"/>
<g opacity="0.01">
<rect x="69.6499" y="4.19995" width="38.71" height="25.6" fill="white"/>
</g>
<rect x="83.8999" y="8.65991" width="10.21" height="16.68" fill="#F26122"/>
<path d="M84.9998 17.0001C84.9829 13.7536 86.4575 10.6791 88.9998 8.66006C84.65 5.23935 78.4017 5.73608 74.647 9.80106C70.8924 13.866 70.8924 20.1341 74.647 24.1991C78.4017 28.264 84.65 28.7608 88.9998 25.3401C86.4575 23.321 84.9829 20.2465 84.9998 17.0001Z" fill="#EA1D25"/>
<path fill-rule="evenodd" clip-rule="evenodd" d="M105.14 23.2299V23.5699H105.08V23.2299H104.94V23.1599H105.29V23.2299H105.14ZM105.82 23.1599V23.5699H105.75V23.2599L105.64 23.5299H105.56L105.44 23.2599V23.5699H105.37V23.1599H105.47L105.6 23.4499L105.72 23.1599H105.82Z" fill="#F69E1E"/>
<path d="M106.16 17C106.157 21.0593 103.839 24.7614 100.188 26.5358C96.5369 28.3102 92.1935 27.846 89 25.34C93.6001 21.7179 94.3967 15.0543 90.78 10.45C90.2616 9.78326 89.6638 9.18216 89 8.65999C92.1935 6.15398 96.5369 5.68973 100.188 7.46416C103.839 9.23859 106.157 12.9406 106.16 17Z" fill="#F69E1E"/>
<rect x="257" y="1" width="48" height="32" rx="4" fill="white" stroke="#E4E6EA"/>
<path fill-rule="evenodd" clip-rule="evenodd" d="M274.087 7.13173C271.746 8.41156 270.224 10.7735 270 13.3967V15.5247C270.096 15.881 270.425 16.1394 270.811 16.1297C271.26 16.1262 271.621 15.7608 271.621 15.3123V14.2015C271.595 11.8542 272.854 9.68021 274.904 8.53591C276.922 7.32803 279.44 7.32803 281.457 8.53591L282.421 9.10177C282.424 9.10317 282.427 9.10456 282.429 9.10596C282.814 9.32602 283.305 9.19329 283.525 8.80836H283.539C283.754 8.41924 283.625 7.92952 283.246 7.69759L282.267 7.13173C281.008 6.37724 279.593 6 278.178 6C276.762 6 275.346 6.37724 274.087 7.13173ZM284.856 9.63689C284.65 10.0344 284.805 10.5234 285.202 10.7295L286.152 11.2954C288.202 12.4376 289.461 14.6137 289.428 16.961C289.456 19.309 288.199 21.4837 286.152 22.6336L281.423 25.3644C279.403 26.5744 276.882 26.5744 274.862 25.3644C272.812 24.2243 271.557 22.0461 271.6 19.6995V18.588C271.593 18.1416 271.23 17.7818 270.783 17.7783C270.407 17.7818 270.093 18.0375 270 18.384V20.4917C270.221 23.1079 271.721 25.4699 274.038 26.7763C276.558 28.2775 279.699 28.2775 282.219 26.7763L286.976 24.0378C289.545 22.6182 291.121 19.8951 291.07 16.961C291.106 14.0339 289.534 11.3219 286.976 9.89817L286.02 9.33231C285.996 9.31764 285.973 9.30366 285.949 9.29179C285.83 9.22961 285.702 9.19957 285.576 9.19957C285.283 9.19957 285.001 9.35885 284.856 9.63689ZM275.728 9.98899C274.194 10.8462 273.249 12.4718 273.263 14.2288V19.6995C273.232 21.462 274.182 23.0947 275.728 23.94C277.235 24.8419 279.114 24.8419 280.619 23.94L281.583 23.3741C281.962 23.1394 282.08 22.6434 281.849 22.264C281.63 21.877 281.14 21.7422 280.753 21.9608C280.748 21.9636 280.743 21.9671 280.738 21.9699L279.781 22.5358C278.765 23.1226 277.513 23.1226 276.497 22.5358C275.476 21.9608 274.854 20.871 274.877 19.6995V14.2288C274.859 13.0523 275.494 11.9611 276.526 11.3939C277.539 10.7994 278.795 10.7994 279.808 11.3939L284.538 14.1317C285.561 14.7017 286.188 15.7894 286.166 16.961C286.185 18.1339 285.561 19.2223 284.538 19.7973L283.574 20.3631C283.2 20.6084 283.094 21.1106 283.34 21.4851C283.567 21.833 284.022 21.9525 284.391 21.7603L285.341 21.2015C286.879 20.3464 287.824 18.7193 287.808 16.961C287.837 15.2012 286.886 13.5707 285.341 12.7275L280.619 9.98899C279.868 9.5335 279.021 9.30646 278.174 9.30646C277.327 9.30646 276.48 9.5335 275.728 9.98899ZM276.74 13.4415C276.602 13.6818 276.529 13.9521 276.526 14.2288V15.3402C276.567 15.7894 276.966 16.1206 277.415 16.078C277.807 16.0423 278.117 15.7315 278.153 15.3402V14.5718C278.154 14.5005 278.191 14.4349 278.25 14.3971C278.317 14.3762 278.387 14.3762 278.454 14.3971L280.55 15.5847L282.645 16.794C282.713 16.8192 282.754 16.889 282.743 16.961C282.748 17.0336 282.71 17.1028 282.645 17.1356L280.55 18.3163L278.454 19.5248C278.389 19.5528 278.316 19.5528 278.25 19.5248C278.185 19.4976 278.144 19.4291 278.153 19.3572V18.588C278.111 18.1395 277.713 17.8084 277.263 17.8503C276.872 17.8866 276.562 18.1968 276.526 18.588V19.6995C276.521 20.2793 276.835 20.8158 277.343 21.0967C277.846 21.3908 278.468 21.3908 278.971 21.0967L283.7 18.3589C284.207 18.0773 284.521 17.5415 284.518 16.961C284.518 16.3818 284.205 15.8474 283.7 15.5638L278.971 12.8323C278.714 12.6863 278.436 12.6171 278.161 12.6171C277.594 12.6164 277.042 12.9133 276.74 13.4415Z" fill="url(#paint0_linear_2503_239)"/>
<rect x="129" y="1" width="48" height="32" rx="4" fill="white" stroke="#E4E6EA"/>
<path d="M159.997 22.3662L159.496 20.2865H160.146L160.373 21.6294L160.635 20.2865H161.188L161.44 21.6294L161.659 20.2865H162.292L161.798 22.3662H161.137L160.899 21.1194L160.67 22.3662H159.997ZM162.261 22.3662L162.992 20.2865H163.668L164.4 22.3662H163.737L163.66 22.0908H162.998L162.918 22.3662H162.261ZM164.59 22.3662V20.2865H165.258V21.8137H166.166V22.3662H164.59ZM166.438 22.3662V20.2865H167.106V21.8137H168.014V22.3662H166.438ZM168.287 22.3662V20.2865H169.951V20.7848H168.955V21.0612H169.796V21.539H168.955V21.8604H169.992V22.3662H168.287ZM170.739 22.3662V20.8341H170.141V20.2865H171.993V20.8341H171.407V22.3662H170.739ZM159.225 22.3562H136.457V20.3042H158.691L159.225 22.3562ZM163.119 21.6545H163.539L163.331 20.9341L163.119 21.6545ZM165.825 16.7397H161.216C161.2 17.4282 161.639 17.8986 162.301 17.923C162.718 17.9382 163.091 17.858 163.336 17.4733L163.379 17.4189L165.738 17.4089C165.738 17.4089 165.713 17.5292 165.702 17.5662C165.453 18.442 164.853 18.9587 163.987 19.19C162.955 19.4657 161.909 19.4657 160.873 19.2183C159.817 18.9661 159.19 18.2876 158.998 17.213C158.868 16.4842 158.867 15.7555 159.017 15.0316C159.23 14.0088 159.863 13.3721 160.871 13.1331C161.901 12.8889 162.94 12.8863 163.968 13.1556C165.029 13.4339 165.618 14.152 165.774 15.2195C165.836 15.6397 165.835 16.6396 165.825 16.7397ZM158.477 16.8253C158.439 17.1879 158.331 17.4839 158.221 17.784C157.928 18.5797 157.315 19.0253 156.517 19.2167C155.512 19.4583 154.496 19.4609 153.49 19.217C152.4 18.9532 151.78 18.2422 151.605 17.138C151.489 16.4077 151.489 15.678 151.655 14.9567C151.884 13.9664 152.519 13.3638 153.495 13.1324C154.526 12.8886 155.567 12.8818 156.592 13.1582C157.749 13.4703 158.251 14.2341 158.416 15.3141C158.423 15.354 158.425 15.4023 158.426 15.4467C157.672 15.4467 156.92 15.4463 156.17 15.4463C156.127 15.3148 156.092 15.1806 156.04 15.0522C155.884 14.6587 155.581 14.4641 155.168 14.4367C155.016 14.4268 154.86 14.4261 154.712 14.4503C154.246 14.5262 153.985 14.8289 153.883 15.2694C153.747 15.8533 153.742 16.4437 153.872 17.0289C154.011 17.6509 154.358 17.9214 154.982 17.925C155.627 17.9292 155.967 17.6673 156.126 17.045C156.144 16.9749 156.157 16.9041 156.175 16.8253H158.477ZM147.748 17.4089C147.609 17.9726 147.353 18.4224 146.913 18.7573C146.452 19.1083 145.914 19.2618 145.352 19.3287C144.542 19.4252 143.732 19.423 142.933 19.2283C141.792 18.9497 141.132 18.1952 140.992 17.0103C140.914 16.3533 140.911 15.6967 141.046 15.0439C141.266 13.9857 141.922 13.3548 142.96 13.1189C143.919 12.9011 144.885 12.8989 145.845 13.1164C147.024 13.3834 147.701 14.144 147.828 15.3514C147.876 15.8031 147.897 16.2845 147.867 16.7545C146.287 16.7545 144.779 16.7346 143.243 16.7346C143.276 17.7007 144.113 18.2258 144.97 17.8185C145.15 17.7326 145.361 17.5267 145.481 17.4131C146.224 17.4073 146.969 17.4089 147.748 17.4089ZM168.88 19.2212H166.45C166.45 19.2212 166.455 17.2783 166.455 16.4057V11.0019H168.88V19.2212ZM136.421 13.0401H134L137.72 11.3668H137.075L134 12.8056V12.4687L136.471 11.3668H135.86L134 12.2194V11.9025L135.173 11.3767L134.618 11.3719L134 11.6283V11.0074H141.62V11.618L141.031 11.3668H140.448L141.621 11.8925V12.1911L139.767 11.3668H139.153L141.621 12.4661V12.7531L138.677 11.3668H137.903L141.621 13.0401H139.204L139.204 19.2093H136.421V13.0401ZM150.907 11.0003H148.504V19.209H150.907V11.0003ZM172 11H169.599V19.208H172V11ZM163.54 15.5242C163.454 14.7472 163.048 14.4036 162.27 14.4316C161.656 14.4535 161.253 14.874 161.229 15.5242H163.54ZM145.558 15.521C145.567 14.8656 145.112 14.4319 144.42 14.4297C143.715 14.4274 143.255 14.8569 143.261 15.521H145.558Z" fill="#F36F31"/>
<defs>
<linearGradient id="paint0_linear_2503_239" x1="280.047" y1="33.5388" x2="281.297" y2="-4.71333" gradientUnits="userSpaceOnUse">
<stop stop-color="#FB6723"/>
<stop offset="1" stop-color="#FF9500"/>
</linearGradient>
<clipPath id="clip0_2503_239">
<rect width="42" height="9" fill="white" transform="translate(196 12)"/>
</clipPath>
</defs>
</svg>
