<svg width="112" height="112" viewBox="0 0 112 112" fill="none" xmlns="http://www.w3.org/2000/svg">
<circle cx="56" cy="56" r="21" fill="#F46036"/>
<path fill-rule="evenodd" clip-rule="evenodd" d="M62.6834 22.6356C58.3639 21.7881 53.9211 21.7881 49.6019 22.6356L47.4919 28.3701C43.4285 29.6435 39.6962 31.7982 36.5617 34.6805L30.5406 33.6405C27.6471 36.9577 25.4257 40.8051 24 44.9696L27.9111 49.664C26.9822 53.8197 26.9822 58.1294 27.9111 62.2851L24 66.9795C25.4257 71.1439 27.6471 74.9914 30.5406 78.3083L36.5617 77.2686C39.6962 80.1509 43.4285 82.3056 47.4919 83.579L49.6019 89.3134C53.9211 90.1607 58.3639 90.1607 62.6834 89.3134L64.7934 83.579C68.8567 82.3056 72.5888 80.1509 75.7233 77.2686L81.7444 78.3083C84.6379 74.9914 86.8596 71.1439 88.2853 66.9795L84.3742 62.2851C85.303 58.1294 85.303 53.8197 84.3742 49.664L88.2853 44.9696C86.8596 40.8051 84.6379 36.9577 81.7444 33.6405L75.7233 34.6805C72.5888 31.7982 68.8567 29.6435 64.7934 28.3701L62.6834 22.6356ZM61.2245 24.3766L62.9441 29.0505C63.1552 29.6241 63.6207 30.0674 64.2042 30.2501C67.9906 31.4368 71.4688 33.4448 74.3897 36.131C74.8398 36.5447 75.4562 36.7263 76.0588 36.6221L80.9664 35.7743C83.1182 38.4191 84.8338 41.3906 86.0481 44.5763L82.8604 48.4027C82.4689 48.8725 82.318 49.4971 82.4511 50.0938C83.317 53.9664 83.317 57.9825 82.4511 61.8553C82.318 62.4517 82.4689 63.0766 82.8604 63.5461L86.0481 67.3725C84.8338 70.5585 83.1182 73.53 80.9664 76.1745L76.0588 75.3269C75.4562 75.2228 74.8398 75.4044 74.3897 75.8181C71.4688 78.5042 67.9906 80.512 64.2042 81.6987C63.6207 81.8817 63.1552 82.325 62.9441 82.8986L61.2245 87.5725C57.8581 88.1138 54.4269 88.1138 51.0607 87.5725L49.3409 82.8986C49.1298 82.325 48.6645 81.8817 48.0811 81.6987C44.2944 80.512 40.8165 78.5042 37.8956 75.8181C37.4455 75.4044 36.8288 75.2228 36.2264 75.3269L31.3189 76.1745C29.1668 73.53 27.4512 70.5585 26.2369 67.3727L29.4249 63.5461C29.8161 63.0766 29.9673 62.4517 29.8339 61.8553C28.9683 57.9825 28.9683 53.9664 29.8339 50.0938C29.9673 49.4971 29.8161 48.8725 29.4249 48.4027L26.2369 44.5766C27.4512 41.3906 29.1668 38.4191 31.3186 35.7746L36.2264 36.6221C36.8288 36.7263 37.4455 36.5447 37.8956 36.131C40.8165 33.4448 44.2944 31.4368 48.0811 30.2501C48.6645 30.0674 49.1298 29.6241 49.3409 29.0505L51.0607 24.3766C54.4269 23.835 57.8584 23.835 61.2245 24.3766Z" fill="#F46036"/>
<path d="M57.8666 43.1067L52.4561 68.8499" stroke="white" stroke-width="3" stroke-miterlimit="1.5"/>
<path d="M47.2278 50.2762L41.6833 55.8208L47.1276 61.265" stroke="white" stroke-width="3" stroke-miterlimit="1.5"/>
<path d="M64.1005 50.2762L69.645 55.8208L64.2007 61.265" stroke="white" stroke-width="3" stroke-miterlimit="1.5"/>
</svg>
