<svg width="112" height="112" viewBox="0 0 112 112" fill="none" xmlns="http://www.w3.org/2000/svg">
<rect width="112" height="112" fill="white"/>
<g clip-path="url(#clip0_2626_1178)">
<path d="M35.7303 40.63L40.0003 36.06C40.618 35.3837 40.9605 34.5009 40.9605 33.585C40.9605 32.6691 40.618 31.7862 40.0003 31.11C39.3861 30.4746 38.5464 30.1068 37.6629 30.0862C36.7795 30.0657 35.9235 30.3939 35.2803 31L35.2003 31.07L35.0003 31.29L34.7903 31.07C34.4793 30.7455 34.1048 30.4884 33.6903 30.3146C33.2757 30.1409 32.8298 30.0542 32.3803 30.06C31.9331 30.064 31.4914 30.1592 31.0822 30.3397C30.673 30.5203 30.3049 30.7824 30.0003 31.11C29.364 31.7869 29.0098 32.6809 29.0098 33.61C29.0098 34.539 29.364 35.4331 30.0003 36.11L34.3003 40.68C34.4877 40.8662 34.7412 40.9708 35.0053 40.9708C35.2695 40.9708 35.523 40.8662 35.7103 40.68H35.7603L35.7303 40.63ZM31.4303 34.69C31.1591 34.3858 31.0091 33.9925 31.0091 33.585C31.0091 33.1774 31.1591 32.7841 31.4303 32.48C31.5557 32.3405 31.7104 32.2305 31.8833 32.1578C32.0562 32.0852 32.243 32.0518 32.4303 32.06C32.6175 32.0532 32.8039 32.0872 32.9766 32.1598C33.1493 32.2323 33.3042 32.3416 33.4303 32.48L34.3603 33.48C34.4539 33.5799 34.5669 33.6595 34.6925 33.714C34.8181 33.7684 34.9535 33.7965 35.0903 33.7965C35.2272 33.7965 35.3626 33.7684 35.4882 33.714C35.6138 33.6595 35.7268 33.5799 35.8203 33.48L36.7603 32.48C36.8779 32.3542 37.0193 32.253 37.1763 32.1823C37.3333 32.1116 37.5028 32.0729 37.6749 32.0682C37.847 32.0636 38.0183 32.0931 38.1789 32.1552C38.3395 32.2173 38.4861 32.3107 38.6103 32.43L38.6703 32.48C38.9416 32.7841 39.0916 33.1774 39.0916 33.585C39.0916 33.9925 38.9416 34.3858 38.6703 34.69L35.0003 38.48L31.4303 34.69ZM76.1003 71.3L74.7903 74L71.8503 74.43C71.5956 74.4673 71.365 74.6014 71.2067 74.8045C71.0484 75.0075 70.9745 75.2638 71.0003 75.52C71.032 75.7366 71.1339 75.9368 71.2903 76.09L73.4103 78.16L72.9103 81.08C72.8874 81.21 72.8905 81.3434 72.9193 81.4722C72.9482 81.6011 73.0023 81.723 73.0786 81.8309C73.1548 81.9387 73.2517 82.0304 73.3635 82.1006C73.4754 82.1708 73.6001 82.2182 73.7303 82.24C73.9456 82.2763 74.1669 82.2412 74.3603 82.14L77.0003 80.76L79.6303 82.14C79.7718 82.2164 79.9296 82.2575 80.0903 82.26C80.3556 82.26 80.6099 82.1546 80.7975 81.9671C80.985 81.7795 81.0903 81.5252 81.0903 81.26C81.0957 81.2034 81.0957 81.1465 81.0903 81.09L80.5903 78.16L82.7103 76.09C82.8422 75.9598 82.9354 75.7955 82.9793 75.6155C83.0233 75.4355 83.0163 75.2468 82.9593 75.0704C82.9023 74.8941 82.7973 74.7371 82.6563 74.617C82.5152 74.4968 82.3435 74.4182 82.1603 74.39L79.2103 74L77.9003 71.3C77.8353 71.1771 77.7454 71.0692 77.6364 70.983C77.5273 70.8969 77.4015 70.8344 77.267 70.7996C77.1324 70.7647 76.9921 70.7584 76.8549 70.7808C76.7177 70.8033 76.5868 70.8541 76.4703 70.93C76.3164 71.0183 76.1887 71.146 76.1003 71.3ZM78.4003 75.86L79.8503 76.07L78.8003 77.07C78.6846 77.1824 78.5978 77.3211 78.5473 77.4743C78.4968 77.6276 78.4841 77.7908 78.5103 77.95L78.7603 79.4L77.4603 78.72C77.3169 78.6446 77.1573 78.6053 76.9953 78.6053C76.8333 78.6053 76.6738 78.6446 76.5303 78.72L75.2303 79.4L75.4803 78C75.5078 77.8416 75.4967 77.6789 75.448 77.5257C75.3993 77.3725 75.3143 77.2333 75.2003 77.12L74.1503 76.12L75.6003 75.91C75.7606 75.8859 75.9125 75.8233 76.0432 75.7275C76.1738 75.6317 76.2792 75.5055 76.3503 75.36L77.0003 74L77.6503 75.31C77.7202 75.4574 77.8251 75.5855 77.9558 75.6831C78.0865 75.7807 78.2391 75.8449 78.4003 75.87V75.86Z" fill="#F46036"/>
<path d="M75 30.5H73V32.5H75V30.5Z" fill="#F46036"/>
<path d="M81 30.5H79V32.5H81V30.5Z" fill="#F46036"/>
<path d="M77 38.5C76.2044 38.5 75.4413 38.1839 74.8787 37.6213C74.3161 37.0587 74 36.2956 74 35.5H72C72 36.8261 72.5268 38.0979 73.4645 39.0355C74.4021 39.9732 75.6739 40.5 77 40.5C78.3261 40.5 79.5979 39.9732 80.5355 39.0355C81.4732 38.0979 82 36.8261 82 35.5H80C80 36.2956 79.6839 37.0587 79.1213 37.6213C78.5587 38.1839 77.7956 38.5 77 38.5Z" fill="#F46036"/>
<path d="M86.9992 35.0001C87.1318 32.3479 86.2055 29.7517 84.4239 27.7825C82.6423 25.8134 80.1514 24.6327 77.4992 24.5001C74.8471 24.3674 72.2509 25.2938 70.2817 27.0754C68.3126 28.857 67.1318 31.3479 66.9992 34.0001H44.9992C44.7999 32.1228 44.0733 30.3403 42.9033 28.8587C41.7334 27.3771 40.168 26.257 38.3882 25.6278C36.6083 24.9985 34.6867 24.886 32.8456 25.3031C31.0044 25.7202 29.3189 26.65 27.9841 27.9849C26.6492 29.3198 25.7194 31.0052 25.3023 32.8464C24.8852 34.6875 24.9977 36.6091 25.6269 38.389C26.2562 40.1689 27.3763 41.7343 28.8579 42.9042C30.3395 44.0741 32.122 44.8007 33.9992 45.0001V67.1001C32.1171 67.298 30.3297 68.0259 28.8448 69.1993C27.3599 70.3727 26.2385 71.9434 25.6108 73.7289C24.9832 75.5143 24.8751 77.4412 25.2991 79.2857C25.7232 81.1301 26.6619 82.8164 28.0062 84.1485C29.3506 85.4806 31.0453 86.4039 32.8936 86.8111C34.7418 87.2182 36.6676 87.0925 38.4473 86.4486C40.2269 85.8047 41.7873 84.669 42.9471 83.1735C44.1069 81.6779 44.8185 79.884 44.9992 78.0001H67.0992C67.2986 79.8773 68.0252 81.6598 69.1951 83.1414C70.365 84.623 71.9304 85.7431 73.7103 86.3723C75.4902 87.0016 77.4118 87.1141 79.2529 86.697C81.0941 86.2799 82.7795 85.3501 84.1144 84.0152C85.4493 82.6803 86.379 80.9949 86.7962 79.1537C87.2133 77.3126 87.1007 75.391 86.4715 73.6111C85.8423 71.8313 84.7221 70.2659 83.2406 69.0959C81.759 67.926 79.9765 67.1994 78.0992 67.0001V45.0001C80.5564 44.7282 82.8258 43.5557 84.4694 41.709C86.113 39.8623 87.0142 37.4722 86.9992 35.0001ZM26.9992 35.0001C26.9992 33.4178 27.4684 31.8711 28.3475 30.5555C29.2265 29.2399 30.476 28.2145 31.9378 27.609C33.3996 27.0035 35.0081 26.8451 36.56 27.1538C38.1118 27.4625 39.5373 28.2244 40.6561 29.3432C41.7749 30.462 42.5368 31.8875 42.8455 33.4393C43.1542 34.9912 42.9958 36.5997 42.3903 38.0615C41.7848 39.5233 40.7594 40.7728 39.4438 41.6518C38.1282 42.5309 36.5815 43.0001 34.9992 43.0001C32.8775 43.0001 30.8427 42.1572 29.3424 40.6569C27.8421 39.1566 26.9992 37.1218 26.9992 35.0001ZM34.9992 85.0001C33.417 85.0001 31.8703 84.5309 30.5547 83.6518C29.2391 82.7728 28.2137 81.5233 27.6082 80.0615C27.0027 78.5997 26.8443 76.9912 27.153 75.4393C27.4616 73.8875 28.2236 72.462 29.3424 71.3432C30.4612 70.2244 31.8867 69.4625 33.4385 69.1538C34.9904 68.8451 36.5989 69.0035 38.0607 69.609C39.5225 70.2145 40.7719 71.2399 41.651 72.5555C42.53 73.8711 42.9992 75.4178 42.9992 77.0001C42.9992 79.1218 42.1564 81.1566 40.6561 82.6569C39.1558 84.1572 37.121 85.0001 34.9992 85.0001ZM44.9992 76.0001C44.7795 73.6959 43.7673 71.5393 42.1351 69.8981C40.503 68.2569 38.3521 67.2326 36.0492 67.0001V45.0001C38.3521 44.7675 40.503 43.7432 42.1351 42.102C43.7673 40.4608 44.7795 38.3042 44.9992 36.0001H67.0992C67.3209 38.3119 68.3403 40.4745 69.9825 42.1168C71.6247 43.759 73.7874 44.7784 76.0992 45.0001V67.1001C73.7874 67.3217 71.6247 68.3411 69.9825 69.9833C68.3403 71.6256 67.3209 73.7882 67.0992 76.1001L44.9992 76.0001ZM84.9992 77.0001C84.9992 78.5823 84.53 80.129 83.651 81.4446C82.7719 82.7602 81.5225 83.7856 80.0607 84.3911C78.5989 84.9966 76.9904 85.155 75.4385 84.8463C73.8867 84.5377 72.4612 83.7757 71.3424 82.6569C70.2236 81.5381 69.4616 80.1126 69.153 78.5608C68.8443 77.0089 69.0027 75.4004 69.6082 73.9386C70.2137 72.4768 71.2391 71.2273 72.5547 70.3483C73.8703 69.4692 75.417 69.0001 76.9992 69.0001C79.121 69.0001 81.1558 69.8429 82.6561 71.3432C84.1564 72.8435 84.9992 74.8783 84.9992 77.0001ZM76.9992 43.0001C75.417 43.0001 73.8703 42.5309 72.5547 41.6518C71.2391 40.7728 70.2137 39.5233 69.6082 38.0615C69.0027 36.5997 68.8443 34.9912 69.153 33.4393C69.4616 31.8875 70.2236 30.462 71.3424 29.3432C72.4612 28.2244 73.8867 27.4625 75.4385 27.1538C76.9904 26.8451 78.5989 27.0035 80.0607 27.609C81.5225 28.2145 82.7719 29.2399 83.651 30.5555C84.53 31.8711 84.9992 33.4178 84.9992 35.0001C84.9992 37.1218 84.1564 39.1566 82.6561 40.6569C81.1558 42.1572 79.121 43.0001 76.9992 43.0001Z" fill="#F46036"/>
<path d="M34.25 74H35.75C36.0474 73.9716 36.3442 74.0602 36.5776 74.2468C36.8109 74.4335 36.9624 74.7036 37 75H39C38.9774 74.2115 38.654 73.4616 38.0962 72.9038C37.5385 72.346 36.7885 72.0227 36 72V71H34V72C33.2115 72.0227 32.4615 72.346 31.9038 72.9038C31.346 73.4616 31.0226 74.2115 31 75C31.0364 75.8277 31.3984 76.6074 32.0072 77.1693C32.6159 77.7313 33.4221 78.0298 34.25 78H35.75C36.0152 77.9403 36.2933 77.9885 36.523 78.1338C36.7527 78.2791 36.9153 78.5098 36.975 78.775C37.0347 79.0402 36.9865 79.3183 36.8412 79.548C36.6959 79.7778 36.4652 79.9403 36.2 80C36.0515 80.0299 35.8985 80.0299 35.75 80H34.25C33.9526 80.0284 33.6558 79.9399 33.4224 79.7532C33.1891 79.5666 33.0376 79.2964 33 79H31C31.0226 79.7885 31.346 80.5385 31.9038 81.0962C32.4615 81.654 33.2115 81.9774 34 82V83H36V82C36.7885 81.9774 37.5385 81.654 38.0962 81.0962C38.654 80.5385 38.9774 79.7885 39 79C38.9636 78.1724 38.6016 77.3926 37.9928 76.8307C37.3841 76.2688 36.5779 75.9702 35.75 76H34.25C34.1187 76.0296 33.9828 76.033 33.8502 76.01C33.7176 75.987 33.5907 75.9382 33.477 75.8662C33.3632 75.7943 33.2648 75.7006 33.1872 75.5906C33.1097 75.4805 33.0545 75.3563 33.025 75.225C32.9955 75.0937 32.9921 74.9578 33.015 74.8252C33.038 74.6926 33.0868 74.5658 33.1588 74.452C33.2308 74.3383 33.3244 74.2398 33.4344 74.1622C33.5445 74.0847 33.6687 74.0296 33.8 74C33.9485 73.9701 34.1015 73.9701 34.25 74ZM71 56.37V53.63C71 53.0217 70.7591 52.4382 70.3299 52.0072C69.9007 51.5761 69.3183 51.3327 68.71 51.33C68.6444 51.3373 68.5784 51.3213 68.5235 51.2847C68.4686 51.2481 68.4284 51.1933 68.41 51.13C68.1687 50.3869 67.8677 49.6646 67.51 48.97C67.4819 48.9104 67.4735 48.8433 67.4861 48.7785C67.4986 48.7138 67.5316 48.6548 67.58 48.61C68.0014 48.1801 68.2375 47.602 68.2375 47C68.2375 46.398 68.0014 45.8199 67.58 45.39L65.63 43.44C65.2001 43.0186 64.622 42.7825 64.02 42.7825C63.418 42.7825 62.8399 43.0186 62.41 43.44C62.3644 43.4872 62.3054 43.5192 62.241 43.5317C62.1766 43.5442 62.1099 43.5366 62.05 43.51C61.361 43.1404 60.6376 42.8389 59.89 42.61C59.8312 42.5848 59.7809 42.543 59.7454 42.4897C59.7099 42.4365 59.6906 42.374 59.69 42.31C59.69 41.7 59.4477 41.115 59.0163 40.6837C58.585 40.2523 58 40.01 57.39 40.01H54.63C54.0191 40.0127 53.4341 40.2572 53.003 40.6901C52.572 41.123 52.33 41.7091 52.33 42.32C52.334 42.3772 52.3197 42.4343 52.2891 42.4828C52.2586 42.5314 52.2133 42.5689 52.16 42.59C51.4028 42.8189 50.6694 43.1203 49.97 43.49C49.9104 43.5182 49.8433 43.5265 49.7785 43.514C49.7138 43.5014 49.6548 43.4685 49.61 43.42C49.1796 42.9956 48.5995 42.7576 47.995 42.7576C47.3905 42.7576 46.8104 42.9956 46.38 43.42L44.44 45.36C44.0186 45.7899 43.7825 46.368 43.7825 46.97C43.7825 47.572 44.0186 48.1501 44.44 48.58C44.4893 48.6264 44.5226 48.6871 44.5352 48.7536C44.5478 48.8201 44.5389 48.8889 44.51 48.95C44.1497 49.6386 43.8518 50.3582 43.62 51.1C43.5984 51.1614 43.5575 51.214 43.5034 51.2501C43.4493 51.2862 43.3849 51.3037 43.32 51.3C43.0145 51.3 42.712 51.3603 42.4299 51.4776C42.1477 51.5948 41.8915 51.7666 41.676 51.9831C41.4604 52.1995 41.2897 52.4565 41.1737 52.7391C41.0577 53.0217 40.9987 53.3245 41 53.63V56.37C41 56.9783 41.2409 57.5618 41.6701 57.9928C42.0993 58.4239 42.6817 58.6674 43.29 58.67C43.3556 58.6627 43.4216 58.6787 43.4765 58.7153C43.5314 58.7519 43.5716 58.8067 43.59 58.87C43.8313 59.6131 44.1323 60.3354 44.49 61.03C44.5181 61.0897 44.5265 61.1567 44.5139 61.2215C44.5014 61.2862 44.4684 61.3453 44.42 61.39C43.9986 61.8199 43.7625 62.398 43.7625 63C43.7625 63.602 43.9986 64.1801 44.42 64.61L46.36 66.56C46.7899 66.9814 47.368 67.2175 47.97 67.2175C48.572 67.2175 49.1501 66.9814 49.58 66.56C49.6306 66.5004 49.7013 66.4615 49.7786 66.4504C49.856 66.4393 49.9347 66.457 50 66.5C50.689 66.8697 51.4124 67.1711 52.16 67.4C52.2188 67.4252 52.2691 67.467 52.3046 67.5203C52.3401 67.5735 52.3594 67.636 52.36 67.7C52.36 68.31 52.6023 68.895 53.0337 69.3264C53.465 69.7577 54.05 70 54.66 70H57.4C58.0083 70 58.5918 69.7591 59.0228 69.3299C59.4539 68.9007 59.6974 68.3183 59.7 67.71C59.6927 67.6445 59.7087 67.5784 59.7453 67.5235C59.7819 67.4687 59.8367 67.4284 59.9 67.41C60.6431 67.1687 61.3654 66.8677 62.06 66.51C62.1196 66.4819 62.1867 66.4735 62.2515 66.4861C62.3162 66.4987 62.3752 66.5316 62.42 66.58C62.8499 67.0014 63.428 67.2375 64.03 67.2375C64.632 67.2375 65.2101 67.0014 65.64 66.58L67.59 64.63C68.0114 64.2001 68.2475 63.622 68.2475 63.02C68.2475 62.418 68.0114 61.8399 67.59 61.41C67.5281 61.364 67.4849 61.2972 67.4684 61.2218C67.4518 61.1465 67.4631 61.0677 67.5 61C67.8688 60.299 68.1733 59.566 68.41 58.81C68.4339 58.7523 68.4764 58.7042 68.5307 58.6733C68.5851 58.6425 68.6482 58.6308 68.71 58.64C69.3131 58.6374 69.8911 58.3981 70.3194 57.9735C70.7477 57.5489 70.9921 56.9731 71 56.37ZM69 56.37C69 56.4103 68.9919 56.4501 68.9762 56.4872C68.9605 56.5242 68.9376 56.5578 68.9086 56.5858C68.8797 56.6137 68.8454 56.6356 68.8079 56.6501C68.7703 56.6646 68.7302 56.6713 68.69 56.67C68.2052 56.6647 67.7316 56.8154 67.339 57.1C66.9465 57.3845 66.6558 57.7877 66.51 58.25C66.313 58.8883 66.0586 59.5075 65.75 60.1C65.5213 60.5308 65.4367 61.0235 65.5087 61.5059C65.5807 61.9882 65.8055 62.4348 66.15 62.78C66.202 62.8356 66.231 62.9089 66.231 62.985C66.231 63.0611 66.202 63.1344 66.15 63.19L64.21 65.13C64.1539 65.185 64.0785 65.2158 64 65.2158C63.9215 65.2158 63.8461 65.185 63.79 65.13C63.4424 64.786 62.9942 64.5618 62.5105 64.4898C62.0267 64.4179 61.5327 64.502 61.1 64.73C60.5176 65.0353 59.9084 65.2864 59.28 65.48C58.8097 65.6295 58.3997 65.9257 58.1099 66.3252C57.8202 66.7247 57.666 67.2065 57.67 67.7C57.67 67.7769 57.6394 67.8507 57.5851 67.9051C57.5307 67.9595 57.4569 67.99 57.38 67.99H54.63C54.5911 67.9914 54.5523 67.9848 54.5159 67.9709C54.4796 67.9569 54.4464 67.9358 54.4184 67.9087C54.3904 67.8816 54.3682 67.8492 54.353 67.8133C54.3378 67.7775 54.33 67.739 54.33 67.7C54.3346 67.2078 54.1819 66.7269 53.8941 66.3276C53.6063 65.9282 53.1984 65.6313 52.73 65.48C52.099 65.2846 51.4866 65.0336 50.9 64.73C50.5755 64.551 50.2106 64.458 49.84 64.46C49.2342 64.4681 48.6545 64.7078 48.22 65.13C48.1938 65.1582 48.1621 65.1806 48.1268 65.196C48.0915 65.2114 48.0535 65.2193 48.015 65.2193C47.9765 65.2193 47.9385 65.2114 47.9032 65.196C47.8679 65.1806 47.8362 65.1582 47.81 65.13L45.87 63.19C45.8418 63.1638 45.8194 63.1321 45.804 63.0968C45.7886 63.0615 45.7807 63.0235 45.7807 62.985C45.7807 62.9465 45.7886 62.9085 45.804 62.8732C45.8194 62.8379 45.8418 62.8062 45.87 62.78C46.2132 62.434 46.437 61.9875 46.5089 61.5055C46.5809 61.0235 46.4972 60.5312 46.27 60.1C45.9664 59.5134 45.7154 58.901 45.52 58.27C45.3687 57.8016 45.0718 57.3937 44.6724 57.1059C44.2731 56.8181 43.7922 56.6654 43.3 56.67C43.2611 56.67 43.2225 56.6622 43.1867 56.647C43.1508 56.6318 43.1184 56.6096 43.0913 56.5816C43.0643 56.5536 43.0431 56.5204 43.0291 56.4841C43.0152 56.4477 43.0087 56.4089 43.01 56.37V53.63C43.0087 53.5911 43.0152 53.5523 43.0291 53.516C43.0431 53.4796 43.0643 53.4465 43.0913 53.4185C43.1184 53.3905 43.1508 53.3682 43.1867 53.353C43.2225 53.3378 43.2611 53.33 43.3 53.33C43.7922 53.3347 44.2731 53.1819 44.6724 52.8941C45.0718 52.6063 45.3687 52.1984 45.52 51.73C45.7154 51.099 45.9664 50.4866 46.27 49.9C46.4987 49.4693 46.5833 48.9765 46.5113 48.4941C46.4393 48.0118 46.2145 47.5652 45.87 47.22C45.818 47.1644 45.789 47.0911 45.789 47.015C45.789 46.9389 45.818 46.8656 45.87 46.81L47.81 44.87C47.8371 44.8416 47.8697 44.8189 47.9058 44.8035C47.9419 44.788 47.9807 44.78 48.02 44.78C48.0593 44.78 48.0981 44.788 48.1342 44.8035C48.1703 44.8189 48.2029 44.8416 48.23 44.87C48.5776 45.214 49.0258 45.4383 49.5095 45.5102C49.9933 45.5821 50.4873 45.498 50.92 45.27C51.5091 44.9616 52.125 44.7072 52.76 44.51C53.2273 44.3627 53.6342 44.0675 53.9191 43.6689C54.2041 43.2703 54.3518 42.7899 54.34 42.3C54.34 42.2611 54.3478 42.2225 54.363 42.1867C54.3782 42.1508 54.4004 42.1184 54.4284 42.0913C54.4564 42.0643 54.4896 42.0431 54.5259 42.0291C54.5623 42.0152 54.6011 42.0087 54.64 42.01H57.38C57.4189 42.0087 57.4577 42.0152 57.4941 42.0291C57.5304 42.0431 57.5636 42.0643 57.5916 42.0913C57.6196 42.1184 57.6418 42.1508 57.657 42.1867C57.6722 42.2225 57.68 42.2611 57.68 42.3C57.6754 42.7922 57.8281 43.2731 58.1159 43.6724C58.4037 44.0718 58.8116 44.3687 59.28 44.52C59.911 44.7154 60.5234 44.9664 61.11 45.27C61.5408 45.4987 62.0335 45.5833 62.5159 45.5113C62.9982 45.4393 63.4448 45.2146 63.79 44.87C63.8456 44.818 63.9189 44.789 63.995 44.789C64.0711 44.789 64.1444 44.818 64.2 44.87L66.14 46.81C66.1684 46.8371 66.1911 46.8697 66.2066 46.9058C66.222 46.9419 66.23 46.9807 66.23 47.02C66.23 47.0593 66.222 47.0981 66.2066 47.1342C66.1911 47.1703 66.1684 47.2029 66.14 47.23C65.796 47.5776 65.5718 48.0258 65.4998 48.5096C65.4279 48.9933 65.512 49.4873 65.74 49.92C66.0453 50.5024 66.2963 51.1116 66.49 51.74C66.6409 52.2095 66.9375 52.6186 67.3367 52.9081C67.7358 53.1976 68.2169 53.3524 68.71 53.35C68.7869 53.35 68.8607 53.3806 68.9151 53.4349C68.9694 53.4893 69 53.5631 69 53.64V56.37Z" fill="#F46036"/>
<path d="M56 45C54.0222 45 52.0888 45.5865 50.4443 46.6853C48.7998 47.7841 47.5181 49.3459 46.7612 51.1732C46.0043 53.0004 45.8063 55.0111 46.1922 56.9509C46.578 58.8907 47.5304 60.6725 48.9289 62.0711C50.3275 63.4696 52.1093 64.422 54.0491 64.8079C55.9889 65.1937 57.9996 64.9957 59.8268 64.2388C61.6541 63.4819 63.2159 62.2002 64.3147 60.5557C65.4135 58.9112 66 56.9778 66 55C66 52.3478 64.9464 49.8043 63.0711 47.9289C61.1957 46.0536 58.6522 45 56 45ZM59 62.41C57.078 63.2001 54.922 63.2001 53 62.41V59C53 58.7348 53.1054 58.4804 53.2929 58.2929C53.4804 58.1054 53.7348 58 54 58H58C58.2652 58 58.5196 58.1054 58.7071 58.2929C58.8946 58.4804 59 58.7348 59 59V62.41ZM54.5 53.5C54.5 53.2033 54.588 52.9133 54.7528 52.6666C54.9176 52.42 55.1519 52.2277 55.426 52.1142C55.7001 52.0006 56.0017 51.9709 56.2926 52.0288C56.5836 52.0867 56.8509 52.2296 57.0607 52.4393C57.2704 52.6491 57.4133 52.9164 57.4712 53.2074C57.5291 53.4983 57.4994 53.7999 57.3858 54.074C57.2723 54.3481 57.08 54.5824 56.8334 54.7472C56.5867 54.912 56.2967 55 56 55C55.6022 55 55.2207 54.842 54.9393 54.5607C54.658 54.2794 54.5 53.8978 54.5 53.5ZM61 61.24V59C61.0062 58.2675 60.7442 57.5581 60.2634 57.0055C59.7827 56.4528 59.1163 56.0952 58.39 56C58.8961 55.5271 59.2504 54.9146 59.4082 54.2401C59.566 53.5657 59.5201 52.8596 59.2764 52.2112C59.0326 51.5628 58.602 51.0014 58.0389 50.5979C57.4759 50.1944 56.8058 49.9671 56.1135 49.9447C55.4212 49.9223 54.7378 50.1058 54.1499 50.472C53.5619 50.8381 53.0959 51.3706 52.8107 52.0018C52.5255 52.633 52.434 53.3347 52.5478 54.0179C52.6616 54.7012 52.9756 55.3353 53.45 55.84L53.61 56C52.8837 56.0952 52.2174 56.4528 51.7366 57.0055C51.2558 57.5581 50.9938 58.2675 51 59V61.24C49.7645 60.251 48.8501 58.9178 48.3725 57.409C47.8948 55.9002 47.8754 54.2837 48.3167 52.7638C48.758 51.244 49.6401 49.8892 50.8515 48.8709C52.0629 47.8525 53.5491 47.2163 55.1222 47.0428C56.6952 46.8692 58.2844 47.1661 59.6886 47.896C61.0929 48.6258 62.2491 49.7557 63.0111 51.1428C63.7731 52.5298 64.1065 54.1117 63.9693 55.6884C63.832 57.265 63.2302 58.7655 62.24 60C61.8751 60.4591 61.4591 60.8751 61 61.24Z" fill="#F46036"/>
</g>
<defs>
<clipPath id="clip0_2626_1178">
<rect width="62" height="62" fill="white" transform="translate(25 25)"/>
</clipPath>
</defs>
</svg>
