<svg width="112" height="112" viewBox="0 0 112 112" fill="none" xmlns="http://www.w3.org/2000/svg">
<rect width="112" height="112" fill="white"/>
<path d="M27.6895 55.9999C27.6895 67.2059 34.2015 76.8891 43.6446 81.4785L30.1404 44.4778C28.5216 48.1032 27.6864 52.0295 27.6895 55.9999ZM75.1102 54.5714C75.1102 51.0726 73.8533 48.6496 72.7754 46.7638C71.3405 44.4319 69.996 42.4569 69.996 40.125C69.996 37.5228 71.9691 35.1003 74.748 35.1003C74.8736 35.1003 74.9927 35.1159 75.1155 35.123C70.0784 30.5088 63.3675 27.6914 55.9979 27.6914C46.109 27.6906 37.4078 32.765 32.3459 40.4503C33.0099 40.4701 33.6363 40.4835 34.1675 40.4835C37.1288 40.4835 41.7123 40.1242 41.7123 40.1242C43.2383 40.0345 43.4183 42.2758 41.8942 42.4561C41.8942 42.4561 40.3601 42.6367 38.6536 42.7262L48.9628 73.3906L55.1587 54.8103L50.7475 42.7262C49.2229 42.6367 47.7788 42.4567 47.7788 42.4567C46.2534 42.3674 46.4324 40.035 47.9575 40.1247C47.9575 40.1247 52.6327 40.4841 55.4145 40.4841C58.375 40.4841 62.9591 40.1247 62.9591 40.1247C64.4863 40.035 64.6658 42.2763 63.1407 42.4567C63.1407 42.4567 61.604 42.6372 59.9006 42.7267L70.1312 73.1585L72.9544 63.7227C74.1788 59.807 75.1102 56.9946 75.1102 54.5711V54.5714Z" fill="#F46036"/>
<path d="M56.4956 58.4755L48.002 83.1563C53.7047 84.836 59.7914 84.6784 65.3996 82.7056C65.3206 82.582 65.2532 82.4514 65.1981 82.3155L56.4956 58.4755ZM80.8409 42.4169C80.9696 43.3819 81.0332 44.3544 81.0315 45.328C81.0315 48.2008 80.4951 51.4301 78.8789 55.468L70.2315 80.4688C78.6479 75.5608 84.3088 66.4427 84.3088 55.9983C84.3162 51.2512 83.1232 46.5793 80.8409 42.4169Z" fill="#F46036"/>
<path d="M56 23C37.8046 23 23 37.8033 23 56C23 74.1967 37.8041 89 56 89C74.1959 89 89.0018 74.1973 89.0018 56C89.0018 37.8027 74.1959 23 56 23ZM56 87.4873C38.6391 87.4873 24.5135 73.3617 24.5135 56C24.5135 38.6383 38.6386 24.5138 56 24.5138C73.3614 24.5138 87.4859 38.6383 87.4859 56C87.4859 73.3617 73.3609 87.4873 56 87.4873Z" fill="#F46036"/>
</svg>
