<svg width="112" height="112" viewBox="0 0 112 112" fill="none" xmlns="http://www.w3.org/2000/svg">
<rect width="112" height="112" fill="white"/>
<path d="M10.8331 72.9958C10.0004 73.0265 9.1731 72.8489 8.4261 72.479C7.67909 72.1092 7.03591 71.5588 6.55456 70.8775C5.53105 69.0787 4.99515 67.043 5.00003 64.9726C5.00492 62.9022 5.55038 60.869 6.58237 59.075C7.07854 58.3888 7.73616 57.8358 8.49684 57.4651C9.25753 57.0944 10.0978 56.9173 10.9431 56.9498C11.8181 56.9084 12.6887 57.096 13.4693 57.4941C14.2498 57.8922 14.9133 58.4871 15.3945 59.2202H15.5338C15.3355 58.2029 15.2291 57.1699 15.2161 56.1335V51.1769H19.446V72.7167H16.2109L15.3945 70.7087H15.2148C14.7582 71.4502 14.1098 72.0542 13.3385 72.4568C12.5671 72.8595 11.7015 73.0457 10.8331 72.9958ZM12.3127 69.6314C12.7533 69.6688 13.1966 69.6032 13.6076 69.4397C14.0186 69.2762 14.3862 69.0195 14.6812 68.6895C15.2773 67.7336 15.5643 66.6166 15.5031 65.4912V65.0419C15.6035 63.8014 15.3366 62.5588 14.7355 61.4696C14.4424 61.0956 14.0606 60.8009 13.6248 60.6123C13.189 60.4236 12.7131 60.3471 12.2403 60.3895C11.8018 60.3767 11.3678 60.4809 10.9828 60.6913C10.5977 60.9016 10.2754 61.2107 10.0487 61.5868C9.46248 62.6516 9.19182 63.8618 9.26854 65.0753C9.18662 66.2706 9.46057 67.4633 10.0557 68.5025C10.3029 68.8695 10.6402 69.1665 11.0353 69.365C11.4304 69.5635 11.8698 69.6566 12.3113 69.6356L12.3127 69.6314Z" fill="#F46036"/>
<path d="M30.8464 73C29.7859 73.0627 28.7237 72.9126 27.722 72.5584C26.7202 72.2042 25.7993 71.6532 25.0131 70.9376C24.2828 70.1592 23.7196 69.2391 23.3582 68.2342C22.9969 67.2293 22.8451 66.1609 22.9121 65.0949C22.7726 62.9153 23.467 60.7643 24.8542 59.0792C25.5436 58.3582 26.3805 57.795 27.3075 57.4282C28.2345 57.0614 29.2298 56.8996 30.2251 56.954C31.1578 56.8982 32.092 57.0353 32.9695 57.3567C33.847 57.6782 34.649 58.1771 35.3256 58.8225C35.9573 59.5184 36.444 60.3334 36.7574 61.2199C37.0707 62.1064 37.2045 63.0467 37.1507 63.9856V66.034H27.1851C27.1683 67.0726 27.5492 68.0783 28.2495 68.8444C28.6209 69.1938 29.0595 69.4637 29.5387 69.6374C30.0178 69.8111 30.5273 69.885 31.036 69.8547C31.9265 69.8601 32.8147 69.7627 33.683 69.5645C34.5791 69.3469 35.45 69.0359 36.2813 68.6365V71.9046C35.5299 72.2784 34.7341 72.5551 33.9129 72.7279C32.9029 72.9243 31.8752 73.0155 30.8464 73V73ZM30.253 59.9584C29.8619 59.9375 29.471 60.0029 29.108 60.15C28.7449 60.297 28.4186 60.5223 28.152 60.8096C27.6005 61.4947 27.2939 62.3451 27.2812 63.2251H33.1968C33.236 62.3462 32.9453 61.4845 32.3818 60.8096C32.1084 60.5231 31.7766 60.2989 31.4091 60.152C31.0416 60.0051 30.6468 59.9391 30.2516 59.9584H30.253Z" fill="#F46036"/>
<path d="M43.469 64.8173L38.4924 57.2443H43.2753L46.2748 62.1729L49.3024 57.2443H54.0853L49.0542 64.8173L54.3206 72.7223H49.5238L46.2748 67.4197L43.0134 72.7223H38.2305L43.469 64.8173Z" fill="#F46036"/>
<path d="M66.4833 72.7237L65.6684 70.6194H65.5583C64.9828 71.4026 64.2323 72.0401 63.3668 72.4809C62.4357 72.8608 61.4345 73.0378 60.4299 73C59.7902 73.0354 59.15 72.9408 58.5479 72.7218C57.9457 72.5029 57.3939 72.1641 56.9259 71.726C56.4789 71.2393 56.1352 70.6668 55.9154 70.0432C55.6955 69.4196 55.6042 68.7578 55.647 68.0979C55.5976 67.3959 55.7301 66.6931 56.0315 66.0574C56.333 65.4218 56.7931 64.8749 57.3676 64.4698C58.9479 63.5726 60.7428 63.1248 62.5586 63.1748L65.2406 63.0911V62.4129C65.2832 62.0889 65.2498 61.7594 65.1432 61.4505C65.0365 61.1416 64.8595 60.8619 64.6262 60.6335C64.3928 60.405 64.1095 60.2342 63.7988 60.1344C63.488 60.0347 63.1585 60.0088 62.836 60.0588C61.3233 60.1258 59.8409 60.5059 58.4822 61.1752L57.089 58.3229C58.9176 57.3797 60.9493 56.9006 63.0059 56.9275C64.7043 56.8144 66.3893 57.2937 67.7748 58.2839C68.3498 58.7974 68.7986 59.4369 69.0864 60.1526C69.3742 60.8683 69.4933 61.6409 69.4342 62.4102V72.7251L66.4833 72.7237ZM65.2393 65.5526L63.6078 65.6085C62.6522 65.5751 61.7058 65.8048 60.8715 66.2727C60.5745 66.478 60.3356 66.7568 60.1782 67.0821C60.0207 67.4073 59.9499 67.7679 59.9729 68.1286C59.9729 69.3194 60.6551 69.9147 62.0195 69.9147C62.4464 69.9358 62.8733 69.8721 63.2755 69.7272C63.6777 69.5823 64.0472 69.3591 64.3629 69.0705C64.6576 68.7789 64.8879 68.4287 65.0391 68.0424C65.1903 67.6562 65.2589 67.2425 65.2406 66.8281L65.2393 65.5526Z" fill="#F46036"/>
<path d="M80.2838 69.6356C81.1852 69.6058 82.0773 69.4427 82.931 69.1514V72.2939C81.7045 72.7983 80.3858 73.0389 79.0605 73C78.3909 73.0605 77.7162 72.9776 77.0811 72.7567C76.4459 72.5359 75.865 72.1821 75.377 71.719C74.5304 70.6259 74.1193 69.2569 74.2234 67.8774V60.4146H72.2031V58.6285L74.5256 57.2163L75.7419 53.9482H78.4377V57.2442H82.7638V60.4146H78.4377V67.8774C78.4174 68.1225 78.4522 68.369 78.5394 68.5989C78.6267 68.8288 78.7644 69.0362 78.9422 69.2058C79.3221 69.5082 79.7992 69.661 80.2838 69.6356V69.6356Z" fill="#F46036"/>
<path d="M93.0536 73C91.9931 73.0626 90.9308 72.9124 89.929 72.5583C88.9273 72.2041 88.0064 71.6531 87.2202 70.9376C86.4899 70.1592 85.9266 69.2391 85.5652 68.2342C85.2039 67.2293 85.0521 66.1609 85.1191 65.0949C84.9797 62.9154 85.6742 60.7644 87.0613 59.0792C87.7507 58.3582 88.5876 57.795 89.5146 57.4282C90.4416 57.0614 91.4369 56.8996 92.4321 56.954C93.3648 56.8982 94.2991 57.0353 95.1766 57.3567C96.0541 57.6782 96.8561 58.1771 97.5327 58.8225C98.1643 59.5184 98.651 60.3334 98.9644 61.2199C99.2777 62.1064 99.4115 63.0467 99.3577 63.9856V66.034H89.3964C89.3796 67.0726 89.7604 68.0783 90.4607 68.8444C90.832 69.1939 91.2707 69.4638 91.7498 69.6375C92.2289 69.8112 92.7385 69.8851 93.2471 69.8547C94.1377 69.8601 95.0259 69.7627 95.8943 69.5645C96.7904 69.3469 97.6612 69.0359 98.4926 68.6365V71.9046C97.7412 72.2785 96.9453 72.5552 96.1242 72.7279C95.1128 72.9246 94.0838 73.0158 93.0536 73V73ZM92.4587 59.9584C92.0676 59.9374 91.6767 60.0027 91.3136 60.1498C90.9505 60.2969 90.6241 60.5222 90.3576 60.8096C89.8062 61.4948 89.4997 62.3451 89.4869 63.2251H95.4024C95.4415 62.3462 95.1508 61.4846 94.5874 60.8096C94.3145 60.5237 93.9834 60.2997 93.6167 60.1529C93.2499 60.0061 92.8559 59.9397 92.4614 59.9584H92.4587Z" fill="#F46036"/>
<path d="M106.997 72.7168H102.781V51.1798H106.997V72.7168Z" fill="#F46036"/>
<path d="M75.1829 48.2005C76.8265 48.2005 78.1588 46.866 78.1588 45.2199C78.1588 43.5737 76.8265 42.2393 75.1829 42.2393C73.5394 42.2393 72.207 43.5737 72.207 45.2199C72.207 46.866 73.5394 48.2005 75.1829 48.2005Z" fill="#F46036"/>
<path d="M89.6048 46.0809C91.2484 46.0809 92.5807 44.7465 92.5807 43.1003C92.5807 41.4542 91.2484 40.1197 89.6048 40.1197C87.9613 40.1197 86.6289 41.4542 86.6289 43.1003C86.6289 44.7465 87.9613 46.0809 89.6048 46.0809Z" fill="#F46036"/>
<path d="M104.023 43.9612C105.666 43.9612 106.999 42.6268 106.999 40.9806C106.999 39.3345 105.666 38 104.023 38C102.379 38 101.047 39.3345 101.047 40.9806C101.047 42.6268 102.379 43.9612 104.023 43.9612Z" fill="#F46036"/>
</svg>
