<svg width="112" height="112" viewBox="0 0 112 112" fill="none" xmlns="http://www.w3.org/2000/svg">
<rect width="112" height="112" fill="white"/>
<path d="M38.22 59.12C37.4933 59.12 36.8367 58.9633 36.25 58.65C35.67 58.3367 35.2133 57.9067 34.88 57.36C34.5533 56.8067 34.39 56.1867 34.39 55.5C34.39 54.8133 34.5533 54.1967 34.88 53.65C35.2133 53.0967 35.67 52.6633 36.25 52.35C36.8367 52.0367 37.4933 51.88 38.22 51.88C38.9467 51.88 39.6 52.0367 40.18 52.35C40.76 52.6633 41.2167 53.0967 41.55 53.65C41.8833 54.1967 42.05 54.8133 42.05 55.5C42.05 56.1867 41.8833 56.8067 41.55 57.36C41.2167 57.9067 40.76 58.3367 40.18 58.65C39.6 58.9633 38.9467 59.12 38.22 59.12ZM38.22 57.74C38.6333 57.74 39.0067 57.6467 39.34 57.46C39.6733 57.2667 39.9333 57 40.12 56.66C40.3133 56.32 40.41 55.9333 40.41 55.5C40.41 55.0667 40.3133 54.68 40.12 54.34C39.9333 54 39.6733 53.7367 39.34 53.55C39.0067 53.3567 38.6333 53.26 38.22 53.26C37.8067 53.26 37.4333 53.3567 37.1 53.55C36.7667 53.7367 36.5033 54 36.31 54.34C36.1233 54.68 36.03 55.0667 36.03 55.5C36.03 55.9333 36.1233 56.32 36.31 56.66C36.5033 57 36.7667 57.2667 37.1 57.46C37.4333 57.6467 37.8067 57.74 38.22 57.74ZM49.6375 59L49.6275 54.8L47.5675 58.26H46.8375L44.7875 54.89V59H43.2675V52H44.6075L47.2275 56.35L49.8075 52H51.1375L51.1575 59H49.6375ZM59.2383 52V59H57.9083L54.4183 54.75V59H52.8183V52H54.1583L57.6383 56.25V52H59.2383ZM60.8945 52H62.5145V59H60.8945V52ZM64.1757 52H65.7957V57.68H69.3057V59H64.1757V52ZM73.4837 59.12C72.757 59.12 72.1003 58.9633 71.5137 58.65C70.9337 58.3367 70.477 57.9067 70.1437 57.36C69.817 56.8067 69.6537 56.1867 69.6537 55.5C69.6537 54.8133 69.817 54.1967 70.1437 53.65C70.477 53.0967 70.9337 52.6633 71.5137 52.35C72.1003 52.0367 72.757 51.88 73.4837 51.88C74.2103 51.88 74.8637 52.0367 75.4437 52.35C76.0237 52.6633 76.4803 53.0967 76.8137 53.65C77.147 54.1967 77.3137 54.8133 77.3137 55.5C77.3137 56.1867 77.147 56.8067 76.8137 57.36C76.4803 57.9067 76.0237 58.3367 75.4437 58.65C74.8637 58.9633 74.2103 59.12 73.4837 59.12ZM73.4837 57.74C73.897 57.74 74.2703 57.6467 74.6037 57.46C74.937 57.2667 75.197 57 75.3837 56.66C75.577 56.32 75.6737 55.9333 75.6737 55.5C75.6737 55.0667 75.577 54.68 75.3837 54.34C75.197 54 74.937 53.7367 74.6037 53.55C74.2703 53.3567 73.897 53.26 73.4837 53.26C73.0703 53.26 72.697 53.3567 72.3637 53.55C72.0303 53.7367 71.767 54 71.5737 54.34C71.387 54.68 71.2937 55.0667 71.2937 55.5C71.2937 55.9333 71.387 56.32 71.5737 56.66C71.767 57 72.0303 57.2667 72.3637 57.46C72.697 57.6467 73.0703 57.74 73.4837 57.74ZM83.2612 55.39H84.7412V58.23C84.3612 58.5167 83.9212 58.7367 83.4212 58.89C82.9212 59.0433 82.4178 59.12 81.9112 59.12C81.1845 59.12 80.5312 58.9667 79.9512 58.66C79.3712 58.3467 78.9145 57.9167 78.5812 57.37C78.2545 56.8167 78.0912 56.1933 78.0912 55.5C78.0912 54.8067 78.2545 54.1867 78.5812 53.64C78.9145 53.0867 79.3745 52.6567 79.9612 52.35C80.5478 52.0367 81.2078 51.88 81.9412 51.88C82.5545 51.88 83.1112 51.9833 83.6112 52.19C84.1112 52.3967 84.5312 52.6967 84.8712 53.09L83.8312 54.05C83.3312 53.5233 82.7278 53.26 82.0212 53.26C81.5745 53.26 81.1778 53.3533 80.8312 53.54C80.4845 53.7267 80.2145 53.99 80.0212 54.33C79.8278 54.67 79.7312 55.06 79.7312 55.5C79.7312 55.9333 79.8278 56.32 80.0212 56.66C80.2145 57 80.4812 57.2667 80.8212 57.46C81.1678 57.6467 81.5612 57.74 82.0012 57.74C82.4678 57.74 82.8878 57.64 83.2612 57.44V55.39ZM86.246 52H87.866V59H86.246V52ZM91.8273 59.12C91.2739 59.12 90.7373 59.0467 90.2173 58.9C89.7039 58.7467 89.2906 58.55 88.9773 58.31L89.5273 57.09C89.8273 57.31 90.1839 57.4867 90.5973 57.62C91.0106 57.7533 91.4239 57.82 91.8373 57.82C92.2973 57.82 92.6373 57.7533 92.8573 57.62C93.0773 57.48 93.1873 57.2967 93.1873 57.07C93.1873 56.9033 93.1206 56.7667 92.9873 56.66C92.8606 56.5467 92.6939 56.4567 92.4873 56.39C92.2873 56.3233 92.0139 56.25 91.6673 56.17C91.1339 56.0433 90.6973 55.9167 90.3573 55.79C90.0173 55.6633 89.7239 55.46 89.4773 55.18C89.2373 54.9 89.1173 54.5267 89.1173 54.06C89.1173 53.6533 89.2273 53.2867 89.4473 52.96C89.6673 52.6267 89.9973 52.3633 90.4373 52.17C90.8839 51.9767 91.4273 51.88 92.0673 51.88C92.5139 51.88 92.9506 51.9333 93.3773 52.04C93.8039 52.1467 94.1773 52.3 94.4973 52.5L93.9973 53.73C93.3506 53.3633 92.7039 53.18 92.0573 53.18C91.6039 53.18 91.2673 53.2533 91.0473 53.4C90.8339 53.5467 90.7273 53.74 90.7273 53.98C90.7273 54.22 90.8506 54.4 91.0973 54.52C91.3506 54.6333 91.7339 54.7467 92.2473 54.86C92.7806 54.9867 93.2173 55.1133 93.5573 55.24C93.8973 55.3667 94.1873 55.5667 94.4273 55.84C94.6739 56.1133 94.7973 56.4833 94.7973 56.95C94.7973 57.35 94.6839 57.7167 94.4573 58.05C94.2373 58.3767 93.9039 58.6367 93.4573 58.83C93.0106 59.0233 92.4673 59.12 91.8273 59.12ZM97.2566 53.32H95.0166V52H101.117V53.32H98.8766V59H97.2566V53.32ZM101.988 52H103.608V59H101.988V52ZM108.619 59.12C107.906 59.12 107.259 58.9667 106.679 58.66C106.106 58.3467 105.653 57.9167 105.319 57.37C104.993 56.8167 104.829 56.1933 104.829 55.5C104.829 54.8067 104.993 54.1867 105.319 53.64C105.653 53.0867 106.106 52.6567 106.679 52.35C107.259 52.0367 107.909 51.88 108.629 51.88C109.236 51.88 109.783 51.9867 110.269 52.2C110.763 52.4133 111.176 52.72 111.509 53.12L110.469 54.08C109.996 53.5333 109.409 53.26 108.709 53.26C108.276 53.26 107.889 53.3567 107.549 53.55C107.209 53.7367 106.943 54 106.749 54.34C106.563 54.68 106.469 55.0667 106.469 55.5C106.469 55.9333 106.563 56.32 106.749 56.66C106.943 57 107.209 57.2667 107.549 57.46C107.889 57.6467 108.276 57.74 108.709 57.74C109.409 57.74 109.996 57.4633 110.469 56.91L111.509 57.87C111.176 58.2767 110.763 58.5867 110.269 58.8C109.776 59.0133 109.226 59.12 108.619 59.12Z" fill="#F46036"/>
<rect x="15.9883" y="40" width="22.6438" height="22.611" rx="4" transform="rotate(45 15.9883 40)" fill="#F46036"/>
<circle cx="16.0205" cy="56.0197" r="11.2588" fill="white"/>
<circle cx="15.8816" cy="56.1537" r="8.44411" fill="#F46036"/>
</svg>
